<svg width="384" height="275" viewBox="0 0 384 275" fill="none" xmlns="http://www.w3.org/2000/svg">
<path opacity="0.3" d="M53.7824 140.062L0 148.602V275H384V0L334.219 46.118L276.595 64.4798L230.016 107.182L174.313 99.9224L109.486 125.543L53.7824 140.062Z" fill="url(#paint0_linear_1350_15260)"/>
<path d="M0 148.602L53.7824 140.062L109.486 125.543L174.313 99.9224L230.016 107.182L276.595 64.4798L334.219 46.118L384 0" stroke="#65A46F"/>
<line x1="137.5" y1="39" x2="137.5" y2="236" stroke="#E3E1DE" stroke-dasharray="4 4"/>
<line x1="137.5" y1="0.5" x2="137.5" y2="274.5" stroke="#E3E1DE" stroke-dasharray="4 4"/>
<circle cx="137.5" cy="114" r="5.5" fill="#65A46F" stroke="white" stroke-width="2"/>
<path d="M148 92C148 89.7909 149.791 88 152 88H237C239.209 88 241 89.7909 241 92V137C241 139.209 239.209 141 237 141H152C149.791 141 148 139.209 148 137V92Z" fill="white"/>
<path d="M148.5 92C148.5 90.067 150.067 88.5 152 88.5H237C238.933 88.5 240.5 90.067 240.5 92V137C240.5 138.933 238.933 140.5 237 140.5H152C150.067 140.5 148.5 138.933 148.5 137V92Z" stroke="#2E2E1F" stroke-opacity="0.12"/>
<path d="M159.592 104.9C159.64 105.812 160.144 106.244 160.912 106.244C161.848 106.244 162.124 105.524 162.124 104.576V98.432H163.264V104.552C163.264 106.196 162.508 107.204 160.912 107.204C159.58 107.204 158.536 106.376 158.5 104.876L158.488 104.42H159.568L159.592 104.9ZM164.973 102.668C165.105 101.768 165.861 100.64 167.481 100.64C169.761 100.64 169.977 102.116 169.977 103.076V105.74C169.977 106.208 170.025 106.7 170.073 107H168.921C168.897 106.7 168.897 106.448 168.897 106.1V105.86H168.885C168.741 106.34 168.225 107.144 166.845 107.144C165.357 107.144 164.673 106.196 164.673 105.308C164.673 103.556 166.881 103.496 167.817 103.328C168.633 103.184 168.897 102.956 168.897 102.44C168.897 101.924 168.405 101.552 167.517 101.552C166.761 101.552 166.197 101.996 166.053 102.668H164.973ZM165.741 105.308C165.741 105.896 166.281 106.268 167.037 106.268C167.985 106.268 168.921 105.656 168.921 104.12L168.909 103.256C168.789 103.664 168.525 104.024 167.181 104.264C166.281 104.42 165.741 104.684 165.741 105.308ZM171.579 107V100.796H172.659V101.96C172.983 101.252 173.559 100.652 174.519 100.652C176.151 100.652 176.763 101.72 176.763 102.98V107H175.683V103.088C175.683 101.996 175.215 101.564 174.375 101.564C173.463 101.564 172.659 102.332 172.659 103.952V107H171.579ZM178.289 104.816V100.796H179.369V104.708C179.369 105.8 179.837 106.232 180.677 106.232C181.589 106.232 182.393 105.464 182.393 103.844V100.796H183.473V107H182.393V105.836C182.069 106.544 181.493 107.144 180.533 107.144C178.901 107.144 178.289 106.076 178.289 104.816ZM185.083 102.668C185.215 101.768 185.971 100.64 187.591 100.64C189.871 100.64 190.087 102.116 190.087 103.076V105.74C190.087 106.208 190.135 106.7 190.183 107H189.031C189.007 106.7 189.007 106.448 189.007 106.1V105.86H188.995C188.851 106.34 188.335 107.144 186.955 107.144C185.467 107.144 184.783 106.196 184.783 105.308C184.783 103.556 186.991 103.496 187.927 103.328C188.743 103.184 189.007 102.956 189.007 102.44C189.007 101.924 188.515 101.552 187.627 101.552C186.871 101.552 186.307 101.996 186.163 102.668H185.083ZM185.851 105.308C185.851 105.896 186.391 106.268 187.147 106.268C188.095 106.268 189.031 105.656 189.031 104.12L189.019 103.256C188.899 103.664 188.635 104.024 187.291 104.264C186.391 104.42 185.851 104.684 185.851 105.308ZM192.769 100.796V102.044C193.081 101.132 193.681 100.772 194.617 100.772V101.804C194.569 101.804 194.377 101.816 194.221 101.84C193.501 101.948 192.769 102.272 192.769 104.072V107H191.689V100.796H192.769ZM196.454 100.796L198.422 105.932H198.434L200.198 100.796H201.35L198.542 108.2C198.266 108.944 197.81 109.4 196.97 109.4H196.13V108.488H196.814C197.414 108.488 197.51 108.152 197.69 107.708L197.906 107.168C197.042 105.044 196.166 102.92 195.302 100.796H196.454ZM205.048 101.156C205.048 99.332 206.104 98.384 207.904 98.384C209.5 98.384 210.568 99.32 210.568 100.868C210.568 102.368 209.848 102.884 208.876 103.64C207.868 104.432 206.692 105.056 206.356 106.088H210.652V107H204.928C205.048 105.128 206.296 104.144 207.46 103.364C208.804 102.464 209.488 101.948 209.488 100.916C209.488 100.04 208.912 99.296 207.844 99.296C206.656 99.296 206.14 100.16 206.128 101.156H205.048ZM214.814 106.232C216.218 106.232 216.782 104.324 216.782 102.716C216.782 101.12 216.218 99.296 214.814 99.296C213.41 99.296 212.846 101.12 212.846 102.716C212.846 104.324 213.41 106.232 214.814 106.232ZM211.766 102.716C211.766 100.532 212.558 98.384 214.814 98.384C217.07 98.384 217.862 100.532 217.862 102.716C217.862 104.9 217.07 107.144 214.814 107.144C212.558 107.144 211.766 104.912 211.766 102.716ZM219.033 101.156C219.033 99.332 220.089 98.384 221.889 98.384C223.485 98.384 224.553 99.32 224.553 100.868C224.553 102.368 223.833 102.884 222.861 103.64C221.853 104.432 220.677 105.056 220.341 106.088H224.637V107H218.913C219.033 105.128 220.281 104.144 221.445 103.364C222.789 102.464 223.473 101.948 223.473 100.916C223.473 100.04 222.897 99.296 221.829 99.296C220.641 99.296 220.125 100.16 220.113 101.156H219.033ZM224.671 104.84V103.952L228.487 98.432H229.471V103.928H230.419V104.84H229.471V107H228.391V104.84H224.671ZM225.787 103.928H228.391V100.196H228.355L225.787 103.928Z" fill="#74746A"/>
<path d="M162.018 118.24H163.488V119.808C165.084 120.032 166.162 120.998 166.316 122.846H164.706C164.524 121.67 163.922 121.096 162.718 121.096C161.71 121.096 160.87 121.516 160.87 122.594C160.87 123.518 161.766 123.896 163.068 124.274C164.748 124.764 166.442 125.17 166.442 127.298C166.442 129.104 165.07 130.014 163.488 130.196V131.792H162.018V130.182C160.254 129.944 158.966 128.866 158.882 126.836H160.506C160.576 128.208 161.514 128.894 162.844 128.894C163.978 128.894 164.846 128.404 164.846 127.312C164.846 126.192 163.894 125.968 162.62 125.59C160.968 125.1 159.302 124.568 159.274 122.622C159.246 120.97 160.506 120.032 162.018 119.822V118.24ZM167.667 127.55V126.178L172.035 120.004H173.519V126.29H174.653V127.55H173.519V130H172.007V127.55H167.667ZM169.109 126.29H172.007V122.202H171.951L169.109 126.29ZM176.509 128.236H178.175L177.083 131.736H175.739L176.509 128.236ZM180.026 123.224C180.026 121.11 181.384 119.92 183.442 119.92C185.332 119.92 186.662 121.068 186.662 122.846C186.662 124.554 185.864 125.24 184.646 126.178C183.498 127.06 182.294 127.676 181.86 128.712H186.774V130H179.886C179.984 127.788 181.272 126.752 182.798 125.73C184.436 124.652 185.15 124.148 185.15 122.93C185.15 121.992 184.534 121.194 183.386 121.194C182.168 121.194 181.538 122.062 181.538 123.224H180.026ZM188.393 122.692C188.477 121.04 189.611 119.92 191.501 119.92C193.349 119.92 194.511 120.928 194.511 122.482C194.511 123.588 194.049 124.204 193.293 124.652C194.371 125.072 194.959 125.842 194.959 127.144C194.973 128.824 193.713 130.182 191.543 130.182C189.457 130.182 188.183 129.118 187.987 127.27V127.116H189.541L189.555 127.228C189.653 128.348 190.423 128.922 191.529 128.922C192.747 128.922 193.475 128.124 193.475 127.074C193.475 125.898 192.495 125.394 191.291 125.394C191.137 125.394 190.941 125.394 190.801 125.408V124.064C191.039 124.064 191.235 124.05 191.459 124.036C192.397 123.966 192.999 123.56 192.999 122.65C192.999 121.726 192.411 121.208 191.473 121.208C190.521 121.208 190.031 121.74 189.919 122.482L189.891 122.692H188.393ZM196.114 127.55V126.178L200.482 120.004H201.966V126.29H203.1V127.55H201.966V130H200.454V127.55H196.114ZM197.556 126.29H200.454V122.202H200.398L197.556 126.29ZM204.69 128.236H206.398V130H204.69V128.236ZM211.272 130H209.76V122.79H207.338V121.74C208.668 121.74 209.648 121.474 210.012 120.004H211.272V130ZM213.596 123.224C213.596 121.11 214.954 119.92 217.012 119.92C218.902 119.92 220.232 121.068 220.232 122.846C220.232 124.554 219.434 125.24 218.216 126.178C217.068 127.06 215.864 127.676 215.43 128.712H220.344V130H213.456C213.554 127.788 214.842 126.752 216.368 125.73C218.006 124.652 218.72 124.148 218.72 122.93C218.72 121.992 218.104 121.194 216.956 121.194C215.738 121.194 215.108 122.062 215.108 123.224H213.596Z" fill="#2E2E27"/>
<defs>
<linearGradient id="paint0_linear_1350_15260" x1="192" y1="0" x2="192" y2="275" gradientUnits="userSpaceOnUse">
<stop stop-color="#96BB96"/>
<stop offset="1" stop-color="#D0D7AC"/>
</linearGradient>
</defs>
</svg>
