<svg width="360" height="50" viewBox="0 0 360 50" fill="none" xmlns="http://www.w3.org/2000/svg">
<g clip-path="url(#clip0_1189_390)">
<path d="M14.3939 25L28.7879 50H0L14.3939 25Z" fill="#4C4C4C"/>
<path d="M14.3939 0L28.7879 25H0L14.3939 0Z" fill="#4C4C4C"/>
<path d="M65.451 13.6364C68.7545 13.6364 71.6629 14.1533 74.1764 15.1872C76.7259 16.1854 78.9342 17.6649 80.8013 19.6257L76.3309 25.5615C74.7869 23.9572 73.1172 22.7629 71.3218 21.9786C69.5624 21.1586 67.5516 20.7487 65.2894 20.7487C63.9609 20.7487 62.8836 20.8913 62.0578 21.1765C61.2319 21.4617 60.6394 21.8538 60.2804 22.3529C59.9213 22.852 59.7418 23.4224 59.7418 24.0642C59.7418 24.8128 60.0829 25.4545 60.7651 25.9893C61.4833 26.4884 62.6323 26.9162 64.2122 27.2727L70.1908 28.6096C73.7456 29.4296 76.3488 30.6239 78.0006 32.1925C79.6523 33.7611 80.4782 35.8467 80.4782 38.4492C80.4782 40.9447 79.8318 43.0659 78.5392 44.8128C77.2465 46.5241 75.4691 47.8253 73.207 48.7166C70.9448 49.5722 68.3595 50 65.451 50C63.0811 50 60.819 49.7504 58.6645 49.2513C56.5101 48.7166 54.5711 47.9679 52.8476 47.0053C51.124 46.0428 49.6698 44.9376 48.4849 43.6898L52.9553 37.5401C53.853 38.574 54.9482 39.5009 56.2408 40.3208C57.5694 41.1052 59.0057 41.729 60.5497 42.1925C62.1296 42.656 63.7275 42.8877 65.3433 42.8877C66.6 42.8877 67.6413 42.7629 68.4672 42.5134C69.329 42.2638 69.9574 41.8895 70.3523 41.3904C70.7473 40.8913 70.9448 40.303 70.9448 39.6257C70.9448 38.877 70.6755 38.2531 70.1369 37.754C69.5983 37.2192 68.5749 36.7736 67.0668 36.4171L60.4958 34.9733C58.485 34.5098 56.6897 33.9037 55.1097 33.1551C53.5657 32.3708 52.3449 31.3369 51.4472 30.0535C50.5495 28.7344 50.1007 27.0945 50.1007 25.1337C50.1007 22.9233 50.7111 20.9626 51.932 19.2513C53.1528 17.5044 54.9122 16.1319 57.2103 15.1337C59.5084 14.1355 62.2553 13.6364 65.451 13.6364ZM117.316 14.1711L104.767 36.5775V49.4652H95.5028V36.5775L82.9533 14.1711H92.5405L97.5496 23.8503L100.189 29.7326L102.882 23.8503L107.891 14.1711H117.316ZM154.503 14.1711V49.4652H144.215L133.174 30.3743L130.481 25.1337H130.427L130.642 31.6577V49.4652H122.455V14.1711H132.743L143.784 33.262L146.477 38.5027H146.531L146.316 31.9786V14.1711H154.503ZM193.348 14.1711V21.2834H181.768V49.4652H172.504V21.2834H160.87V14.1711H193.348ZM231.822 14.1711V49.4652H222.558V14.1711H231.822ZM208.985 14.1711V49.4652H199.721V14.1711H208.985ZM227.514 28.1283V35.2406H204.245V28.1283H227.514ZM240.772 49.4652V14.1711H268.457V21.2834H250.036V28.4492H264.686V35.1337H250.036V42.3529H269.157V49.4652H240.772ZM289.725 13.6364C293.028 13.6364 295.937 14.1533 298.45 15.1872C301 16.1854 303.208 17.6649 305.075 19.6257L300.605 25.5615C299.061 23.9572 297.391 22.7629 295.596 21.9786C293.836 21.1586 291.826 20.7487 289.563 20.7487C288.235 20.7487 287.158 20.8913 286.332 21.1765C285.506 21.4617 284.913 21.8538 284.554 22.3529C284.195 22.852 284.016 23.4224 284.016 24.0642C284.016 24.8128 284.357 25.4545 285.039 25.9893C285.757 26.4884 286.906 26.9162 288.486 27.2727L294.465 28.6096C298.02 29.4296 300.623 30.6239 302.275 32.1925C303.926 33.7611 304.752 35.8467 304.752 38.4492C304.752 40.9447 304.106 43.0659 302.813 44.8128C301.521 46.5241 299.743 47.8253 297.481 48.7166C295.219 49.5722 292.634 50 289.725 50C287.355 50 285.093 49.7504 282.939 49.2513C280.784 48.7166 278.845 47.9679 277.122 47.0053C275.398 46.0428 273.944 44.9376 272.759 43.6898L277.229 37.5401C278.127 38.574 279.222 39.5009 280.515 40.3208C281.843 41.1052 283.28 41.729 284.824 42.1925C286.404 42.656 288.001 42.8877 289.617 42.8877C290.874 42.8877 291.915 42.7629 292.741 42.5134C293.603 42.2638 294.231 41.8895 294.626 41.3904C295.021 40.8913 295.219 40.303 295.219 39.6257C295.219 38.877 294.95 38.2531 294.411 37.754C293.872 37.2192 292.849 36.7736 291.341 36.4171L284.77 34.9733C282.759 34.5098 280.964 33.9037 279.384 33.1551C277.84 32.3708 276.619 31.3369 275.721 30.0535C274.824 28.7344 274.375 27.0945 274.375 25.1337C274.375 22.9233 274.985 20.9626 276.206 19.2513C277.427 17.5044 279.186 16.1319 281.484 15.1337C283.782 14.1355 286.529 13.6364 289.725 13.6364ZM320.883 14.1711V49.4652H311.619V14.1711H320.883ZM343.741 13.6364C347.044 13.6364 349.953 14.1533 352.466 15.1872C355.015 16.1854 357.224 17.6649 359.091 19.6257L354.62 25.5615C353.076 23.9572 351.407 22.7629 349.611 21.9786C347.852 21.1586 345.841 20.7487 343.579 20.7487C342.25 20.7487 341.173 20.8913 340.347 21.1765C339.522 21.4617 338.929 21.8538 338.57 22.3529C338.211 22.852 338.031 23.4224 338.031 24.0642C338.031 24.8128 338.373 25.4545 339.055 25.9893C339.773 26.4884 340.922 26.9162 342.502 27.2727L348.48 28.6096C352.035 29.4296 354.638 30.6239 356.29 32.1925C357.942 33.7611 358.768 35.8467 358.768 38.4492C358.768 40.9447 358.121 43.0659 356.829 44.8128C355.536 46.5241 353.759 47.8253 351.497 48.7166C349.234 49.5722 346.649 50 343.741 50C341.371 50 339.109 49.7504 336.954 49.2513C334.8 48.7166 332.861 47.9679 331.137 47.0053C329.414 46.0428 327.959 44.9376 326.774 43.6898L331.245 37.5401C332.143 38.574 333.238 39.5009 334.53 40.3208C335.859 41.1052 337.295 41.729 338.839 42.1925C340.419 42.656 342.017 42.8877 343.633 42.8877C344.89 42.8877 345.931 42.7629 346.757 42.5134C347.619 42.2638 348.247 41.8895 348.642 41.3904C349.037 40.8913 349.234 40.303 349.234 39.6257C349.234 38.877 348.965 38.2531 348.427 37.754C347.888 37.2192 346.865 36.7736 345.356 36.4171L338.785 34.9733C336.775 34.5098 334.979 33.9037 333.399 33.1551C331.855 32.3708 330.635 31.3369 329.737 30.0535C328.839 28.7344 328.39 27.0945 328.39 25.1337C328.39 22.9233 329.001 20.9626 330.222 19.2513C331.442 17.5044 333.202 16.1319 335.5 15.1337C337.798 14.1355 340.545 13.6364 343.741 13.6364Z" fill="#4C4C4C"/>
</g>
<defs>
<clipPath id="clip0_1189_390">
<rect width="359.091" height="50" fill="white"/>
</clipPath>
</defs>
</svg>
