<svg width="384" height="275" viewBox="0 0 384 275" fill="none" xmlns="http://www.w3.org/2000/svg">
<path d="M0 12C0 5.37259 5.37258 0 12 0H372C378.627 0 384 5.37258 384 12V263C384 269.627 378.627 275 372 275H12C5.37258 275 0 269.627 0 263V12Z" fill="#F2F1E8"/>
<g clip-path="url(#clip0_1350_15276)">
<rect x="42.2607" y="73.8729" width="127.254" height="127.254" rx="63.6271" fill="#2E2E27"/>
<circle cx="105.889" cy="137.5" r="2.38873" fill="#CE8F6B"/>
<path d="M173.208 92.3314L105.889 51.9402V49.5523L-4.41406 140.694L38.8229 195.968L78.8662 215.376L166.476 193.961L182.329 161.17L173.208 92.3314Z" fill="#B8841A"/>
<path d="M105.887 51.9402V137.5L52.5782 49.798L-4.90723 140.694L78.8643 215.376L166.474 193.961L182.327 161.17L173.206 92.3314L105.887 51.9402Z" fill="#B8A9FF"/>
<path d="M105.89 51.94V137.5L12.0459 142.659L43.2453 217.095L166.476 193.961L182.329 161.17L173.208 92.3313L105.89 51.94Z" fill="#D06517"/>
<path d="M105.888 51.94V137.5L134.63 217.341L182.327 161.17L173.206 92.3313L105.888 51.94Z" fill="#96BB96"/>
<circle cx="105.888" cy="137.5" r="50.9413" fill="#F2F1E8"/>
</g>
<g clip-path="url(#clip1_1350_15276)">
<path d="M195.719 91.3979C195.719 88.3828 198.163 85.9387 201.178 85.9387C204.193 85.9387 206.637 88.3828 206.637 91.3979C206.637 94.4129 204.193 96.8571 201.178 96.8571C198.163 96.8571 195.719 94.4129 195.719 91.3979Z" fill="#96BB96"/>
<path d="M217.145 96.3979H215.647L219.713 85.4838H221.532L225.598 96.3979H224.1L222.908 93.2032H218.353L217.145 96.3979ZM218.781 92.0109H222.48L220.646 86.7831H220.6L218.781 92.0109ZM233.797 93.9827C233.354 95.6336 232.207 96.5813 230.297 96.5813C227.836 96.5813 226.246 94.8387 226.246 92.4542C226.246 90.0696 227.836 88.3117 230.297 88.3117C232.314 88.3117 233.4 89.4276 233.736 90.8644H232.36C232.07 90.146 231.535 89.4429 230.251 89.4429C228.646 89.4429 227.622 90.7574 227.622 92.4542C227.622 94.1356 228.646 95.4349 230.251 95.4349C231.397 95.4349 232.055 94.9152 232.406 93.9827H233.797ZM235.478 96.3979V88.4951H236.854V89.8403C237.006 89.1219 237.786 88.3117 238.856 88.3117C240.14 88.3117 240.874 88.8009 241.241 89.8861C241.73 88.8161 242.448 88.3117 243.503 88.3117C245.429 88.3117 246.178 89.6721 246.178 91.2772V96.3979H244.802V91.4147C244.802 90.0237 244.237 89.4734 243.319 89.4734C242.311 89.4734 241.5 90.4517 241.5 92.5153V96.3979H240.125V91.4147C240.125 90.0237 239.743 89.4734 238.673 89.4734C237.266 89.4734 236.854 90.8644 236.854 92.5153V96.3979H235.478ZM255.116 94.0439C254.673 95.7253 253.343 96.5813 251.585 96.5813C249.246 96.5813 247.702 94.8846 247.702 92.4083C247.702 90.0237 249.323 88.3117 251.554 88.3117C254.336 88.3117 255.208 90.5434 255.238 92.5764V92.821H249.032C249.139 94.4719 250.148 95.4349 251.554 95.4349C252.609 95.4349 253.496 95.0222 253.771 94.0439H255.116ZM249.047 91.7204H253.847C253.725 90.3447 252.961 89.4429 251.554 89.4429C250.133 89.4429 249.231 90.36 249.047 91.7204ZM270.496 93.1726C270.068 94.961 268.356 96.5966 265.574 96.5966C261.982 96.5966 260.01 94.0133 260.01 90.9409C260.01 87.8684 261.982 85.2851 265.574 85.2851C268.31 85.2851 269.808 86.7526 270.481 88.6939H269.029C268.432 87.3181 267.424 86.508 265.574 86.508C262.853 86.508 261.462 88.5716 261.462 90.9409C261.462 93.3102 262.838 95.3737 265.574 95.3737C267.439 95.3737 268.601 94.4413 269.044 93.1726H270.496ZM272.344 90.8797C272.512 89.7333 273.475 88.2964 275.539 88.2964C278.443 88.2964 278.719 90.1766 278.719 91.3994V94.7929C278.719 95.389 278.78 96.0157 278.841 96.3979H277.373C277.343 96.0157 277.343 95.6947 277.343 95.2515V94.9457H277.328C277.144 95.5572 276.487 96.5813 274.729 96.5813C272.833 96.5813 271.962 95.3737 271.962 94.2426C271.962 92.0109 274.775 91.9344 275.967 91.7204C277.007 91.537 277.343 91.2466 277.343 90.5893C277.343 89.932 276.716 89.4581 275.585 89.4581C274.622 89.4581 273.903 90.0237 273.72 90.8797H272.344ZM273.323 94.2426C273.323 94.9916 274.01 95.4655 274.973 95.4655C276.181 95.4655 277.373 94.6859 277.373 92.7293L277.358 91.6287C277.205 92.1484 276.869 92.607 275.157 92.9127C274.01 93.1114 273.323 93.4477 273.323 94.2426ZM280.759 96.3979V88.4951H282.135V89.9779C282.547 89.076 283.281 88.3117 284.504 88.3117C286.583 88.3117 287.363 89.6721 287.363 91.2772V96.3979H285.987V91.4147C285.987 90.0237 285.391 89.4734 284.321 89.4734C283.159 89.4734 282.135 90.4517 282.135 92.5153V96.3979H280.759ZM289.352 90.8797C289.52 89.7333 290.483 88.2964 292.547 88.2964C295.451 88.2964 295.726 90.1766 295.726 91.3994V94.7929C295.726 95.389 295.787 96.0157 295.849 96.3979H294.381C294.351 96.0157 294.351 95.6947 294.351 95.2515V94.9457H294.335C294.152 95.5572 293.495 96.5813 291.737 96.5813C289.841 96.5813 288.97 95.3737 288.97 94.2426C288.97 92.0109 291.783 91.9344 292.975 91.7204C294.014 91.537 294.351 91.2466 294.351 90.5893C294.351 89.932 293.724 89.4581 292.593 89.4581C291.63 89.4581 290.911 90.0237 290.728 90.8797H289.352ZM290.33 94.2426C290.33 94.9916 291.018 95.4655 291.981 95.4655C293.189 95.4655 294.381 94.6859 294.381 92.7293L294.366 91.6287C294.213 92.1484 293.877 92.607 292.165 92.9127C291.018 93.1114 290.33 93.4477 290.33 94.2426ZM300.885 88.3117C302.322 88.3117 303.316 89.2747 303.606 90.1001H303.621V85.4838H304.997V96.3979H303.621V94.8235H303.606C303.316 95.6336 302.322 96.5813 300.885 96.5813C298.653 96.5813 297.278 94.8693 297.278 92.4236C297.278 89.9779 298.653 88.3117 300.885 88.3117ZM298.653 92.4236C298.653 94.1356 299.494 95.4043 301.16 95.4043C302.872 95.4043 303.667 93.9827 303.667 92.4236C303.667 90.8797 302.872 89.4734 301.16 89.4734C299.54 89.4734 298.653 90.7116 298.653 92.4236ZM307.047 90.8797C307.215 89.7333 308.178 88.2964 310.241 88.2964C313.146 88.2964 313.421 90.1766 313.421 91.3994V94.7929C313.421 95.389 313.482 96.0157 313.543 96.3979H312.076C312.045 96.0157 312.045 95.6947 312.045 95.2515V94.9457H312.03C311.846 95.5572 311.189 96.5813 309.431 96.5813C307.536 96.5813 306.665 95.3737 306.665 94.2426C306.665 92.0109 309.477 91.9344 310.669 91.7204C311.709 91.537 312.045 91.2466 312.045 90.5893C312.045 89.932 311.418 89.4581 310.287 89.4581C309.324 89.4581 308.606 90.0237 308.422 90.8797H307.047ZM308.025 94.2426C308.025 94.9916 308.713 95.4655 309.676 95.4655C310.883 95.4655 312.076 94.6859 312.076 92.7293L312.06 91.6287C311.908 92.1484 311.571 92.607 309.859 92.9127C308.713 93.1114 308.025 93.4477 308.025 94.2426Z" fill="#2E2E27"/>
</g>
<g clip-path="url(#clip2_1350_15276)">
<path d="M195.719 122.133C195.719 119.118 198.163 116.673 201.178 116.673C204.193 116.673 206.637 119.118 206.637 122.133C206.637 125.148 204.193 127.592 201.178 127.592C198.163 127.592 195.719 125.148 195.719 122.133Z" fill="#D06517"/>
<path d="M217.145 127.133H215.647L219.713 116.219H221.532L225.598 127.133H224.1L222.908 123.938H218.353L217.145 127.133ZM218.781 122.746H222.48L220.646 117.518H220.6L218.781 122.746ZM233.797 124.717C233.354 126.368 232.207 127.316 230.297 127.316C227.836 127.316 226.246 125.573 226.246 123.189C226.246 120.804 227.836 119.046 230.297 119.046C232.314 119.046 233.4 120.162 233.736 121.599H232.36C232.07 120.881 231.535 120.178 230.251 120.178C228.646 120.178 227.622 121.492 227.622 123.189C227.622 124.87 228.646 126.17 230.251 126.17C231.397 126.17 232.055 125.65 232.406 124.717H233.797ZM235.478 127.133V119.23H236.854V120.575C237.006 119.857 237.786 119.046 238.856 119.046C240.14 119.046 240.874 119.536 241.241 120.621C241.73 119.551 242.448 119.046 243.503 119.046C245.429 119.046 246.178 120.407 246.178 122.012V127.133H244.802V122.149C244.802 120.758 244.237 120.208 243.319 120.208C242.311 120.208 241.5 121.186 241.5 123.25V127.133H240.125V122.149C240.125 120.758 239.743 120.208 238.673 120.208C237.266 120.208 236.854 121.599 236.854 123.25V127.133H235.478ZM255.116 124.779C254.673 126.46 253.343 127.316 251.585 127.316C249.246 127.316 247.702 125.619 247.702 123.143C247.702 120.758 249.323 119.046 251.554 119.046C254.336 119.046 255.208 121.278 255.238 123.311V123.556H249.032C249.139 125.207 250.148 126.17 251.554 126.17C252.609 126.17 253.496 125.757 253.771 124.779H255.116ZM249.047 122.455H253.847C253.725 121.079 252.961 120.178 251.554 120.178C250.133 120.178 249.231 121.095 249.047 122.455ZM268.753 123.25C268.753 125.543 267.454 127.392 264.642 127.392C261.829 127.392 260.53 125.543 260.53 123.25V116.219H261.982V123.25C261.982 124.824 262.807 126.17 264.642 126.17C266.476 126.17 267.301 124.824 267.301 123.25V116.219H268.753V123.25ZM272.088 123.754C272.149 125.39 273.265 126.17 274.855 126.17C276.139 126.17 277.239 125.573 277.239 124.244C277.239 122.898 276.108 122.669 274.732 122.256C272.929 121.721 271.094 121.186 271.049 119.123C271.003 117.013 272.745 115.959 274.717 115.959C276.903 115.959 278.34 117.059 278.508 119.245H277.041C276.842 117.869 276.154 117.182 274.717 117.182C273.51 117.182 272.501 117.686 272.501 119.016C272.501 120.132 273.571 120.56 275.008 120.972C276.827 121.492 278.691 121.89 278.691 124.198C278.691 126.429 276.811 127.392 274.855 127.392C272.47 127.392 270.666 126.246 270.636 123.754H272.088ZM280.674 125.298H282.202L281.102 128.982H279.879L280.674 125.298ZM287.68 116.219H289.132V127.133H287.68V116.219ZM291.388 127.133V119.23H292.764V120.713C293.176 119.811 293.91 119.046 295.133 119.046C297.212 119.046 297.991 120.407 297.991 122.012V127.133H296.616V122.149C296.616 120.758 296.02 120.208 294.95 120.208C293.788 120.208 292.764 121.186 292.764 123.25V127.133H291.388ZM307.058 124.717C306.615 126.368 305.469 127.316 303.558 127.316C301.097 127.316 299.507 125.573 299.507 123.189C299.507 120.804 301.097 119.046 303.558 119.046C305.576 119.046 306.661 120.162 306.997 121.599H305.622C305.331 120.881 304.796 120.178 303.512 120.178C301.907 120.178 300.883 121.492 300.883 123.189C300.883 124.87 301.907 126.17 303.512 126.17C304.659 126.17 305.316 125.65 305.667 124.717H307.058ZM308.305 125.298H309.986V127.133H308.305V125.298Z" fill="#2E2E27"/>
</g>
<g clip-path="url(#clip3_1350_15276)">
<path d="M195.719 152.867C195.719 149.852 198.163 147.408 201.178 147.408C204.193 147.408 206.637 149.852 206.637 152.867C206.637 155.882 204.193 158.327 201.178 158.327C198.163 158.327 195.719 155.882 195.719 152.867Z" fill="#B8A9FF"/>
<path d="M217.145 157.867H215.647L219.713 146.953H221.532L225.598 157.867H224.1L222.908 154.673H218.353L217.145 157.867ZM218.781 153.48H222.48L220.646 148.253H220.6L218.781 153.48ZM233.797 155.452C233.354 157.103 232.207 158.051 230.297 158.051C227.836 158.051 226.246 156.308 226.246 153.924C226.246 151.539 227.836 149.781 230.297 149.781C232.314 149.781 233.4 150.897 233.736 152.334H232.36C232.07 151.615 231.535 150.912 230.251 150.912C228.646 150.912 227.622 152.227 227.622 153.924C227.622 155.605 228.646 156.904 230.251 156.904C231.397 156.904 232.055 156.385 232.406 155.452H233.797ZM235.478 157.867V149.965H236.854V151.31C237.006 150.591 237.786 149.781 238.856 149.781C240.14 149.781 240.874 150.27 241.241 151.356C241.73 150.286 242.448 149.781 243.503 149.781C245.429 149.781 246.178 151.142 246.178 152.747V157.867H244.802V152.884C244.802 151.493 244.237 150.943 243.319 150.943C242.311 150.943 241.5 151.921 241.5 153.985V157.867H240.125V152.884C240.125 151.493 239.743 150.943 238.673 150.943C237.266 150.943 236.854 152.334 236.854 153.985V157.867H235.478ZM255.116 155.513C254.673 157.195 253.343 158.051 251.585 158.051C249.246 158.051 247.702 156.354 247.702 153.878C247.702 151.493 249.323 149.781 251.554 149.781C254.336 149.781 255.208 152.013 255.238 154.046V154.29H249.032C249.139 155.941 250.148 156.904 251.554 156.904C252.609 156.904 253.496 156.492 253.771 155.513H255.116ZM249.047 153.19H253.847C253.725 151.814 252.961 150.912 251.554 150.912C250.133 150.912 249.231 151.829 249.047 153.19ZM260.591 157.867V146.953L263.037 146.969L266.094 156.171H266.109L269.136 146.953H271.581V157.867H270.129V148.482H270.099L266.934 157.867H265.253L262.074 148.482H262.043V157.867H260.591ZM280.672 155.513C280.229 157.195 278.899 158.051 277.141 158.051C274.803 158.051 273.259 156.354 273.259 153.878C273.259 151.493 274.879 149.781 277.111 149.781C279.893 149.781 280.764 152.013 280.795 154.046V154.29H274.589C274.696 155.941 275.704 156.904 277.111 156.904C278.165 156.904 279.052 156.492 279.327 155.513H280.672ZM274.604 153.19H279.404C279.281 151.814 278.517 150.912 277.111 150.912C275.689 150.912 274.787 151.829 274.604 153.19ZM276.316 148.956L277.676 146.953H279.419L277.325 148.956H276.316ZM281.429 157.867L284.302 153.817L281.581 149.965H283.248L285.128 152.716L287.008 149.965H288.674L285.968 153.801L288.827 157.867H287.161L285.128 154.902L283.095 157.867H281.429ZM291.657 148.482H290.189V146.953H291.657V148.482ZM290.159 157.867V149.965H291.534V157.867H290.159ZM300.784 155.452C300.34 157.103 299.194 158.051 297.283 158.051C294.822 158.051 293.232 156.308 293.232 153.924C293.232 151.539 294.822 149.781 297.283 149.781C299.301 149.781 300.386 150.897 300.722 152.334H299.347C299.056 151.615 298.521 150.912 297.237 150.912C295.632 150.912 294.608 152.227 294.608 153.924C294.608 155.605 295.632 156.904 297.237 156.904C298.384 156.904 299.041 156.385 299.393 155.452H300.784ZM305.934 158.051C303.534 158.051 301.975 156.247 301.975 153.924C301.975 151.6 303.534 149.781 305.934 149.781C308.334 149.781 309.893 151.6 309.893 153.924C309.893 156.247 308.334 158.051 305.934 158.051ZM303.351 153.924C303.351 155.544 304.39 156.889 305.934 156.889C307.478 156.889 308.517 155.544 308.517 153.924C308.517 152.288 307.478 150.943 305.934 150.943C304.39 150.943 303.351 152.288 303.351 153.924ZM311.286 156.033H312.815L311.714 159.717H310.491L311.286 156.033ZM319.255 154.489C319.316 156.125 320.432 156.904 322.022 156.904C323.306 156.904 324.407 156.308 324.407 154.978C324.407 153.633 323.275 153.404 321.9 152.991C320.096 152.456 318.262 151.921 318.216 149.858C318.17 147.748 319.913 146.693 321.884 146.693C324.07 146.693 325.507 147.794 325.675 149.98H324.208C324.009 148.604 323.321 147.916 321.884 147.916C320.677 147.916 319.668 148.421 319.668 149.751C319.668 150.866 320.738 151.294 322.175 151.707C323.994 152.227 325.859 152.624 325.859 154.933C325.859 157.164 323.979 158.127 322.022 158.127C319.637 158.127 317.834 156.981 317.803 154.489H319.255ZM328.288 157.867H326.79L330.856 146.953H332.675L336.741 157.867H335.243L334.051 154.673H329.496L328.288 157.867ZM329.924 153.48H333.623L331.789 148.253H331.743L329.924 153.48Z" fill="#2E2E27"/>
</g>
<g clip-path="url(#clip4_1350_15276)">
<path d="M195.719 183.602C195.719 180.587 198.163 178.143 201.178 178.143C204.193 178.143 206.637 180.587 206.637 183.602C206.637 186.617 204.193 189.061 201.178 189.061C198.163 189.061 195.719 186.617 195.719 183.602Z" fill="#B8841A"/>
<path d="M217.145 188.602H215.647L219.713 177.688H221.532L225.598 188.602H224.1L222.908 185.407H218.353L217.145 188.602ZM218.781 184.215H222.48L220.646 178.987H220.6L218.781 184.215ZM233.797 186.187C233.354 187.838 232.207 188.786 230.297 188.786C227.836 188.786 226.246 187.043 226.246 184.658C226.246 182.274 227.836 180.516 230.297 180.516C232.314 180.516 233.4 181.632 233.736 183.069H232.36C232.07 182.35 231.535 181.647 230.251 181.647C228.646 181.647 227.622 182.962 227.622 184.658C227.622 186.34 228.646 187.639 230.251 187.639C231.397 187.639 232.055 187.119 232.406 186.187H233.797ZM235.478 188.602V180.699H236.854V182.044C237.006 181.326 237.786 180.516 238.856 180.516C240.14 180.516 240.874 181.005 241.241 182.09C241.73 181.02 242.448 180.516 243.503 180.516C245.429 180.516 246.178 181.876 246.178 183.481V188.602H244.802V183.619C244.802 182.228 244.237 181.678 243.319 181.678C242.311 181.678 241.5 182.656 241.5 184.719V188.602H240.125V183.619C240.125 182.228 239.743 181.678 238.673 181.678C237.266 181.678 236.854 183.069 236.854 184.719V188.602H235.478ZM255.116 186.248C254.673 187.93 253.343 188.786 251.585 188.786C249.246 188.786 247.702 187.089 247.702 184.612C247.702 182.228 249.323 180.516 251.554 180.516C254.336 180.516 255.208 182.748 255.238 184.781V185.025H249.032C249.139 186.676 250.148 187.639 251.554 187.639C252.609 187.639 253.496 187.226 253.771 186.248H255.116ZM249.047 183.925H253.847C253.725 182.549 252.961 181.647 251.554 181.647C250.133 181.647 249.231 182.564 249.047 183.925ZM260.591 177.688H262.043V188.602H260.591V177.688ZM265.965 186.386C265.965 187.089 266.362 187.471 266.974 187.471H267.524V188.602H266.836C265.308 188.602 264.62 187.7 264.62 186.477V181.83H263.443V180.699H264.62V178.85L265.965 178.238V180.699H267.478V181.83H265.965V186.386ZM269.056 183.084C269.224 181.937 270.187 180.501 272.25 180.501C275.155 180.501 275.43 182.381 275.43 183.604V186.997C275.43 187.593 275.491 188.22 275.552 188.602H274.085C274.054 188.22 274.054 187.899 274.054 187.456V187.15H274.039C273.855 187.761 273.198 188.786 271.44 188.786C269.545 188.786 268.673 187.578 268.673 186.447C268.673 184.215 271.486 184.139 272.678 183.925C273.718 183.741 274.054 183.451 274.054 182.793C274.054 182.136 273.427 181.662 272.296 181.662C271.333 181.662 270.615 182.228 270.431 183.084H269.056ZM270.034 186.447C270.034 187.196 270.722 187.67 271.685 187.67C272.892 187.67 274.085 186.89 274.085 184.933L274.069 183.833C273.916 184.353 273.58 184.811 271.868 185.117C270.722 185.316 270.034 185.652 270.034 186.447ZM277.47 177.688H278.846V188.602H277.47V177.688ZM282.412 179.217H280.944V177.688H282.412V179.217ZM280.914 188.602V180.699H282.289V188.602H280.914ZM284.297 183.084C284.465 181.937 285.428 180.501 287.492 180.501C290.396 180.501 290.671 182.381 290.671 183.604V186.997C290.671 187.593 290.732 188.22 290.794 188.602H289.326C289.296 188.22 289.296 187.899 289.296 187.456V187.15H289.28C289.097 187.761 288.44 188.786 286.682 188.786C284.786 188.786 283.915 187.578 283.915 186.447C283.915 184.215 286.728 184.139 287.92 183.925C288.959 183.741 289.296 183.451 289.296 182.793C289.296 182.136 288.669 181.662 287.538 181.662C286.575 181.662 285.856 182.228 285.673 183.084H284.297ZM285.275 186.447C285.275 187.196 285.963 187.67 286.926 187.67C288.134 187.67 289.326 186.89 289.326 184.933L289.311 183.833C289.158 184.353 288.822 184.811 287.11 185.117C285.963 185.316 285.275 185.652 285.275 186.447ZM292.895 186.768H294.424L293.323 190.452H292.1L292.895 186.768ZM300.865 185.224C300.926 186.86 302.042 187.639 303.631 187.639C304.915 187.639 306.016 187.043 306.016 185.713C306.016 184.368 304.885 184.139 303.509 183.726C301.705 183.191 299.871 182.656 299.825 180.592C299.779 178.483 301.522 177.428 303.494 177.428C305.68 177.428 307.117 178.529 307.285 180.715H305.817C305.619 179.339 304.931 178.651 303.494 178.651C302.286 178.651 301.277 179.155 301.277 180.485C301.277 181.601 302.347 182.029 303.784 182.442C305.603 182.962 307.468 183.359 307.468 185.667C307.468 187.899 305.588 188.862 303.631 188.862C301.247 188.862 299.443 187.716 299.412 185.224H300.865ZM309.206 186.768H310.887V188.602H309.206V186.768ZM317.016 180.516C319.248 180.516 320.624 182.182 320.624 184.628C320.624 187.074 319.248 188.786 317.016 188.786C315.58 188.786 314.586 187.838 314.296 187.028H314.28V191.659H312.905V180.699H314.28V182.304H314.296C314.586 181.479 315.58 180.516 317.016 180.516ZM314.234 184.628C314.234 186.187 315.029 187.609 316.741 187.609C318.407 187.609 319.248 186.34 319.248 184.628C319.248 182.916 318.362 181.678 316.741 181.678C315.029 181.678 314.234 183.084 314.234 184.628ZM321.765 186.768H323.447V188.602H321.765V186.768ZM326.259 188.602H324.761L328.827 177.688H330.646L334.712 188.602H333.214L332.022 185.407H327.466L326.259 188.602ZM327.894 184.215H331.594L329.759 178.987H329.713L327.894 184.215Z" fill="#2E2E27"/>
</g>
<defs>
<clipPath id="clip0_1350_15276">
<rect x="42.2607" y="73.8729" width="127.254" height="127.254" rx="63.6271" fill="white"/>
</clipPath>
<clipPath id="clip1_1350_15276">
<rect width="123.021" height="30.7347" fill="white" transform="translate(195.719 76.0305)"/>
</clipPath>
<clipPath id="clip2_1350_15276">
<rect width="120.021" height="30.7347" fill="white" transform="translate(195.719 106.765)"/>
</clipPath>
<clipPath id="clip3_1350_15276">
<rect width="146.021" height="30.7347" fill="white" transform="translate(195.719 137.5)"/>
</clipPath>
<clipPath id="clip4_1350_15276">
<rect width="144.021" height="30.7347" fill="white" transform="translate(195.719 168.235)"/>
</clipPath>
</defs>
</svg>
