<svg width="384" height="275" viewBox="0 0 384 275" fill="none" xmlns="http://www.w3.org/2000/svg">
<g clip-path="url(#clip0_1350_15307)">
<path d="M0 12C0 5.37259 5.37258 0 12 0H372C378.627 0 384 5.37258 384 12V263C384 269.627 378.627 275 372 275H12C5.37258 275 0 269.627 0 263V12Z" fill="#F2F1E8"/>
<g clip-path="url(#clip1_1350_15307)">
<path d="M24 61.1C24 55.7981 28.2981 51.5 33.6 51.5H470.111C475.413 51.5 479.711 55.7981 479.711 61.1V93.9C479.711 99.2019 475.413 103.5 470.111 103.5H33.6C28.2981 103.5 24 99.2019 24 93.9V61.1Z" fill="white" fill-opacity="0.9"/>
<mask id="path-4-inside-1_1350_15307" fill="white">
<path d="M24 51.5H479.711V103.5H24V51.5Z"/>
</mask>
<path d="M479.711 103.078H24V103.922H479.711V103.078Z" fill="#2E2E1F" fill-opacity="0.12" mask="url(#path-4-inside-1_1350_15307)"/>
<path d="M52.4884 79.9311C52.5357 80.8296 53.0322 81.2552 53.7889 81.2552C54.711 81.2552 54.9829 80.5459 54.9829 79.6119V73.5589H56.106V79.5883C56.106 81.2079 55.3612 82.201 53.7889 82.201C52.4766 82.201 51.4481 81.3852 51.4126 79.9075L51.4008 79.4582H52.4648L52.4884 79.9311ZM60.592 77.6967C61.8215 77.6967 62.519 77.0938 62.519 76.1007C62.519 75.1076 61.8924 74.5047 60.6629 74.5047H59.0669V77.6967H60.592ZM57.9438 82V73.5589H60.7812C62.4599 73.5589 63.6421 74.6348 63.6421 76.1007C63.6421 77.5667 62.389 78.6425 60.7102 78.6425H59.0669V82H57.9438ZM67.7729 82V73.5589L69.6644 73.5708L72.0289 80.6877H72.0407L74.3815 73.5589H76.2731V82H75.15V74.7412H75.1263L72.6791 82H71.3787L68.9196 74.7412H68.896V82H67.7729ZM80.6323 82.1419C78.7762 82.1419 77.5704 80.7468 77.5704 78.9499C77.5704 77.1529 78.7762 75.746 80.6323 75.746C82.4884 75.746 83.6943 77.1529 83.6943 78.9499C83.6943 80.7468 82.4884 82.1419 80.6323 82.1419ZM78.6344 78.9499C78.6344 80.203 79.4383 81.2434 80.6323 81.2434C81.8264 81.2434 82.6303 80.203 82.6303 78.9499C82.6303 77.6849 81.8264 76.6445 80.6323 76.6445C79.4383 76.6445 78.6344 77.6849 78.6344 78.9499ZM85.9822 75.8879V77.1174C86.2896 76.2189 86.8807 75.8643 87.8029 75.8643V76.881C87.7556 76.881 87.5664 76.8928 87.4127 76.9164C86.7034 77.0228 85.9822 77.342 85.9822 79.1154V82H84.9182V75.8879H85.9822ZM93.2985 75.8879H94.3625V81.5271C94.3625 83.3359 93.0385 84.3408 91.5252 84.3408C90.012 84.3408 88.8297 83.5842 88.6997 82.2601H89.7637C89.8819 83.1349 90.5558 83.4423 91.5252 83.4423C92.4946 83.4423 93.2985 82.9103 93.2985 81.5271V80.7941H93.2867C93.0266 81.5508 92.4237 82.1419 91.2297 82.1419C89.48 82.1419 88.3923 80.7587 88.3923 78.9262C88.3923 77.1056 89.48 75.746 91.2297 75.746C92.4237 75.746 93.0621 76.4199 93.2867 77.0228H93.2985V75.8879ZM89.4563 78.9262C89.4563 80.1321 90.0593 81.2316 91.3952 81.2316C92.8966 81.2316 93.334 79.8956 93.334 78.9262C93.334 77.9686 92.7074 76.6445 91.3952 76.6445C90.0947 76.6445 89.4563 77.7322 89.4563 78.9262ZM95.9477 77.7322C96.0778 76.8455 96.8226 75.7342 98.4186 75.7342C100.665 75.7342 100.878 77.1884 100.878 78.1341V80.7587C100.878 81.2197 100.925 81.7044 100.972 82H99.8372C99.8136 81.7044 99.8136 81.4562 99.8136 81.1133V80.8769H99.8018C99.6599 81.3498 99.1516 82.1419 97.792 82.1419C96.326 82.1419 95.6522 81.2079 95.6522 80.3331C95.6522 78.607 97.8275 78.5479 98.7496 78.3824C99.5535 78.2405 99.8136 78.0159 99.8136 77.5076C99.8136 76.9992 99.3289 76.6327 98.454 76.6327C97.7092 76.6327 97.1536 77.0701 97.0117 77.7322H95.9477ZM96.7044 80.3331C96.7044 80.9124 97.2364 81.2788 97.9812 81.2788C98.9151 81.2788 99.8372 80.6759 99.8372 79.1627L99.8254 78.3115C99.7072 78.7134 99.4471 79.0681 98.123 79.3045C97.2364 79.4582 96.7044 79.7183 96.7044 80.3331ZM102.456 82V75.8879H103.52V77.0347C103.839 76.3372 104.406 75.746 105.352 75.746C106.96 75.746 107.563 76.7982 107.563 78.0396V82H106.499V78.146C106.499 77.0701 106.038 76.6445 105.21 76.6445C104.312 76.6445 103.52 77.4012 103.52 78.9972V82H102.456Z" fill="#2E2E27"/>
<path d="M116.228 74.422L116.452 73.7954L117.729 74.2564V72.9087H118.391V74.2683L119.739 73.7836L119.975 74.422L118.627 74.8948L119.372 75.9825L118.84 76.3726L118.06 75.2495L117.292 76.3726L116.736 75.9825L117.493 74.8712L116.228 74.422ZM124.398 82H123.334V75.746H121.324V74.9421C122.471 74.9421 123.275 74.7648 123.523 73.5589H124.398V82ZM126.185 76.3608C126.185 74.7057 127.509 73.488 129.176 73.488C130.063 73.488 130.879 73.819 131.411 74.4101C132.025 75.0958 132.179 76.1953 132.179 77.6731C132.179 80.0966 131.328 82.1419 129.247 82.1419C127.663 82.1419 126.635 81.2197 126.41 80.0493H127.474C127.639 80.6168 128.089 81.2434 129.176 81.2434C130.477 81.2434 130.973 80.1084 131.092 78.3824C130.725 78.8435 129.992 79.2691 129.058 79.2691C127.403 79.2691 126.185 78.0277 126.185 76.3608ZM127.249 76.3608C127.249 77.4366 128.065 78.3469 129.176 78.3469C130.299 78.3469 131.103 77.3775 131.103 76.3608C131.103 75.2377 130.252 74.3865 129.176 74.3865C128.1 74.3865 127.249 75.285 127.249 76.3608ZM133.368 76.2426C133.368 74.4456 134.408 73.5116 136.181 73.5116C137.754 73.5116 138.806 74.4338 138.806 75.9588C138.806 77.4366 138.097 77.945 137.139 78.6898C136.146 79.47 134.987 80.0848 134.656 81.1015H138.889V82H133.249C133.368 80.1557 134.597 79.1863 135.744 78.4179C137.068 77.5312 137.742 77.0228 137.742 76.0061C137.742 75.1431 137.174 74.4101 136.122 74.4101C134.952 74.4101 134.443 75.2613 134.432 76.2426H133.368ZM142.908 73.488C144.433 73.488 145.568 74.3037 145.568 75.5924C145.568 76.5618 145 77.3066 144.267 77.5312C145.048 77.7558 145.875 78.5361 145.875 79.7065C145.875 81.2434 144.587 82.1419 142.92 82.1419C141.194 82.1419 139.893 81.2434 139.905 79.7065C139.917 78.5361 140.792 77.744 141.56 77.5194C140.733 77.2475 140.248 76.5736 140.248 75.5924C140.248 74.3037 141.383 73.488 142.908 73.488ZM140.969 79.6237C140.969 80.534 141.655 81.2552 142.908 81.2552C144.149 81.2552 144.811 80.534 144.811 79.6119C144.811 78.7252 144.149 78.0041 142.908 78.0041C141.655 78.0041 140.969 78.7252 140.969 79.6237ZM141.324 75.7815C141.324 76.5145 141.927 77.1765 142.908 77.1765C143.889 77.1765 144.492 76.5263 144.492 75.7815C144.492 75.0367 143.889 74.3865 142.908 74.3865C141.915 74.3865 141.324 75.0367 141.324 75.7815Z" fill="#919189"/>
<path d="M188.755 70.0056H233.555C237.694 70.0056 241.05 73.361 241.05 77.5C241.05 81.6391 237.694 84.9945 233.555 84.9945H188.755C184.616 84.9945 181.261 81.6391 181.261 77.5C181.261 73.361 184.616 70.0056 188.755 70.0056Z" stroke="#2E2E1F" stroke-opacity="0.23" stroke-width="0.211111"/>
<path d="M188.304 77.0176L191.739 73.5621L195.194 77.0075L194.607 77.5749L192.236 75.1936L192.144 75.0923V81H191.344L191.354 75.1024L191.232 75.2341L188.892 77.5851L188.304 77.0176ZM202.392 73.5925C204.732 73.5925 206.141 75.3456 206.141 77.3824C206.141 79.4192 204.732 81.1723 202.392 81.1723C200.051 81.1723 198.642 79.4192 198.642 77.3824C198.642 75.3456 200.051 73.5925 202.392 73.5925ZM199.605 77.3824C199.605 78.9024 200.588 80.3616 202.392 80.3616C204.195 80.3616 205.178 78.9024 205.178 77.3824C205.178 75.8624 204.195 74.4032 202.392 74.4032C200.588 74.4032 199.605 75.8624 199.605 77.3824ZM207.214 79.1557V75.7611H208.126V79.0645C208.126 79.9867 208.521 80.3515 209.231 80.3515C210.001 80.3515 210.68 79.7029 210.68 78.3349V75.7611H211.592V81H210.68V80.0171C210.406 80.6149 209.92 81.1216 209.109 81.1216C207.731 81.1216 207.214 80.2197 207.214 79.1557ZM214.066 79.5307C214.066 79.9968 214.329 80.2501 214.735 80.2501H215.1V81H214.644C213.63 81 213.174 80.4021 213.174 79.5915V76.5109H212.394V75.7611H213.174V74.5349L214.066 74.1296V75.7611H215.069V76.5109H214.066V79.5307ZM216.5 75.1733C216.5 74.4437 216.895 73.7648 217.827 73.7648H218.395V74.5349H218.06C217.665 74.5349 217.392 74.6667 217.392 75.2139V75.7611H218.273V76.5109H217.392V81H216.5V76.5109H215.78V75.7611H216.5V75.1733ZM219.226 81V73.7648H220.138V81H219.226ZM223.815 81.1216C222.224 81.1216 221.191 79.9259 221.191 78.3856C221.191 76.8453 222.224 75.6395 223.815 75.6395C225.406 75.6395 226.44 76.8453 226.44 78.3856C226.44 79.9259 225.406 81.1216 223.815 81.1216ZM222.103 78.3856C222.103 79.4597 222.792 80.3515 223.815 80.3515C224.839 80.3515 225.528 79.4597 225.528 78.3856C225.528 77.3013 224.839 76.4096 223.815 76.4096C222.792 76.4096 222.103 77.3013 222.103 78.3856ZM228.421 81L226.921 75.7611H227.874L228.715 78.9835C228.796 79.3077 228.857 79.632 228.938 79.9563H228.948C229.029 79.6421 229.09 79.3077 229.171 78.9936L230.032 75.7611H231.228L232.079 78.9835L232.323 79.9664H232.333L232.566 78.9835L233.397 75.7611H234.349L232.839 81H231.796L230.863 77.5648L230.63 76.6731H230.62C230.539 76.9771 230.478 77.2608 230.397 77.5648L229.465 81H228.421Z" fill="#D13834"/>
<path d="M252.188 82V73.5589H255.214C257.141 73.5589 258.075 74.6348 258.075 75.9588C258.075 77.1647 257.259 77.9332 256.314 78.1578C257.129 78.3706 257.378 79.009 257.697 80.073C257.933 80.8532 258.11 81.3261 258.43 81.8818V82H257.236C256.952 81.4207 256.739 80.6404 256.491 79.9784C256.195 79.1863 255.852 78.5479 254.836 78.5479H253.311V82H252.188ZM253.311 77.6021H255.167C256.361 77.6021 256.94 76.9519 256.94 75.9588C256.94 75.2022 256.526 74.5047 255.096 74.5047H253.311V77.6021ZM260.901 74.7412H259.766V73.5589H260.901V74.7412ZM259.743 82V75.8879H260.807V82H259.743ZM265.678 75.746C267.404 75.746 268.468 77.0347 268.468 78.9262C268.468 80.8178 267.404 82.1419 265.678 82.1419C264.567 82.1419 263.799 81.4089 263.574 80.7823H263.562V84.3644H262.498V75.8879H263.562V77.1292H263.574C263.799 76.4908 264.567 75.746 265.678 75.746ZM263.527 78.9262C263.527 80.1321 264.141 81.2316 265.466 81.2316C266.754 81.2316 267.404 80.2503 267.404 78.9262C267.404 77.6021 266.719 76.6445 265.466 76.6445C264.141 76.6445 263.527 77.7322 263.527 78.9262ZM272.867 75.746C274.593 75.746 275.657 77.0347 275.657 78.9262C275.657 80.8178 274.593 82.1419 272.867 82.1419C271.756 82.1419 270.988 81.4089 270.763 80.7823H270.751V84.3644H269.687V75.8879H270.751V77.1292H270.763C270.988 76.4908 271.756 75.746 272.867 75.746ZM270.716 78.9262C270.716 80.1321 271.33 81.2316 272.654 81.2316C273.943 81.2316 274.593 80.2503 274.593 78.9262C274.593 77.6021 273.908 76.6445 272.654 76.6445C271.33 76.6445 270.716 77.7322 270.716 78.9262ZM276.876 73.5589H277.94V82H276.876V73.5589ZM280.698 74.7412H279.563V73.5589H280.698V74.7412ZM279.539 82V75.8879H280.603V82H279.539ZM282.295 82V75.8879H283.359V77.0347C283.678 76.3372 284.246 75.746 285.191 75.746C286.799 75.746 287.402 76.7982 287.402 78.0396V82H286.338V78.146C286.338 77.0701 285.877 76.6445 285.049 76.6445C284.151 76.6445 283.359 77.4012 283.359 78.9972V82H282.295ZM293.481 75.8879H294.545V81.5271C294.545 83.3359 293.221 84.3408 291.707 84.3408C290.194 84.3408 289.012 83.5842 288.882 82.2601H289.946C290.064 83.1349 290.738 83.4423 291.707 83.4423C292.677 83.4423 293.481 82.9103 293.481 81.5271V80.7941H293.469C293.209 81.5508 292.606 82.1419 291.412 82.1419C289.662 82.1419 288.574 80.7587 288.574 78.9262C288.574 77.1056 289.662 75.746 291.412 75.746C292.606 75.746 293.244 76.4199 293.469 77.0228H293.481V75.8879ZM289.638 78.9262C289.638 80.1321 290.241 81.2316 291.577 81.2316C293.079 81.2316 293.516 79.8956 293.516 78.9262C293.516 77.9686 292.89 76.6445 291.577 76.6445C290.277 76.6445 289.638 77.7322 289.638 78.9262Z" fill="#2E2E27"/>
<path d="M311.527 77.5C311.527 73.361 314.883 70.0056 319.022 70.0056H355.089C359.228 70.0056 362.583 73.361 362.583 77.5C362.583 81.6391 359.228 84.9945 355.089 84.9945H319.022C314.883 84.9945 311.527 81.6391 311.527 77.5Z" stroke="#2E2E1F" stroke-opacity="0.23" stroke-width="0.211111"/>
<circle cx="319.866" cy="77.5" r="3.37778" fill="#2E2E27"/>
<path d="M329.662 77.3115C330.716 77.3115 331.314 76.7947 331.314 75.9435C331.314 75.0923 330.777 74.5755 329.723 74.5755H328.355V77.3115H329.662ZM327.392 81V73.7648H329.824C331.263 73.7648 332.276 74.6869 332.276 75.9435C332.276 77.2 331.202 78.1221 329.763 78.1221H328.355V81H327.392ZM333.017 77.3419C333.128 76.5819 333.767 75.6293 335.135 75.6293C337.06 75.6293 337.242 76.8757 337.242 77.6864V79.936C337.242 80.3312 337.283 80.7467 337.323 81H336.351C336.33 80.7467 336.33 80.5339 336.33 80.24V80.0373H336.32C336.199 80.4427 335.763 81.1216 334.597 81.1216C333.341 81.1216 332.763 80.3211 332.763 79.5712C332.763 78.0917 334.628 78.0411 335.418 77.8992C336.107 77.7776 336.33 77.5851 336.33 77.1493C336.33 76.7136 335.915 76.3995 335.165 76.3995C334.527 76.3995 334.05 76.7744 333.929 77.3419H333.017ZM333.665 79.5712C333.665 80.0677 334.121 80.3819 334.76 80.3819C335.56 80.3819 336.351 79.8651 336.351 78.568L336.34 77.8384C336.239 78.1829 336.016 78.4869 334.881 78.6896C334.121 78.8213 333.665 79.0443 333.665 79.5712ZM338.842 75.7611L340.504 80.0981H340.514L342.004 75.7611H342.976L340.605 82.0133C340.372 82.6416 339.987 83.0267 339.278 83.0267H338.568V82.2565H339.146C339.653 82.2565 339.734 81.9728 339.886 81.5979L340.068 81.1419C339.339 79.3483 338.599 77.5547 337.869 75.7611H338.842ZM344.689 75.7611V76.8149C344.953 76.0448 345.459 75.7408 346.25 75.7408V76.6123C346.209 76.6123 346.047 76.6224 345.915 76.6427C345.307 76.7339 344.689 77.0075 344.689 78.5275V81H343.777V75.7611H344.689ZM349.459 81.1216C347.868 81.1216 346.834 79.9259 346.834 78.3856C346.834 76.8453 347.868 75.6395 349.459 75.6395C351.05 75.6395 352.083 76.8453 352.083 78.3856C352.083 79.9259 351.05 81.1216 349.459 81.1216ZM347.746 78.3856C347.746 79.4597 348.435 80.3515 349.459 80.3515C350.482 80.3515 351.171 79.4597 351.171 78.3856C351.171 77.3013 350.482 76.4096 349.459 76.4096C348.435 76.4096 347.746 77.3013 347.746 78.3856ZM353.132 73.7648H354.044V81H353.132V73.7648ZM355.415 73.7648H356.327V81H355.415V73.7648Z" fill="#74746A"/>
</g>
<path d="M24.6 61.1C24.6 56.1294 28.6294 52.1 33.6 52.1H470.111C475.082 52.1 479.111 56.1294 479.111 61.1V93.9C479.111 98.8706 475.082 102.9 470.111 102.9H33.6C28.6295 102.9 24.6 98.8706 24.6 93.9V61.1Z" stroke="#2E2E1F" stroke-opacity="0.12" stroke-width="1.2"/>
<g clip-path="url(#clip2_1350_15307)">
<path d="M24 121.1C24 115.798 28.2981 111.5 33.6 111.5H470.111C475.413 111.5 479.711 115.798 479.711 121.1V153.9C479.711 159.202 475.413 163.5 470.111 163.5H33.6C28.2981 163.5 24 159.202 24 153.9V121.1Z" fill="white" fill-opacity="0.9"/>
<mask id="path-18-inside-2_1350_15307" fill="white">
<path d="M24 111.5H479.711V163.5H24V111.5Z"/>
</mask>
<path d="M479.711 163.078H24V163.922H479.711V163.078Z" fill="#2E2E1F" fill-opacity="0.12" mask="url(#path-18-inside-2_1350_15307)"/>
<path d="M54.4627 133.559C57.2291 133.559 58.8015 135.167 58.8015 137.638C58.8015 140.108 57.2291 142 54.5337 142H51.9209V133.559H54.4627ZM53.0441 141.054H54.5691C56.2833 141.054 57.6784 139.896 57.6784 137.638C57.6784 135.474 56.2833 134.505 54.5218 134.505H53.0441V141.054ZM65.4549 140.179C65.1121 141.48 64.0835 142.142 62.724 142.142C60.9152 142.142 59.7211 140.83 59.7211 138.914C59.7211 137.07 60.9743 135.746 62.7003 135.746C64.852 135.746 65.5258 137.472 65.5495 139.044V139.234H60.7497C60.8324 140.51 61.6127 141.255 62.7003 141.255C63.5161 141.255 64.2017 140.936 64.4145 140.179H65.4549ZM60.7615 138.382H64.4737C64.3791 137.318 63.788 136.621 62.7003 136.621C61.6009 136.621 60.9033 137.33 60.7615 138.382ZM66.7677 139.848V135.888H67.8317V139.742C67.8317 140.818 68.2928 141.243 69.1203 141.243C70.0188 141.243 70.8109 140.487 70.8109 138.891V135.888H71.8749V142H70.8109V140.853C70.4917 141.551 69.9243 142.142 68.9785 142.142C67.3707 142.142 66.7677 141.09 66.7677 139.848ZM74.7615 140.286C74.7615 140.83 75.0689 141.125 75.5417 141.125H75.9673V142H75.4353C74.2531 142 73.7211 141.302 73.7211 140.357V136.763H72.8108V135.888H73.7211V134.457L74.7615 133.985V135.888H75.9319V136.763H74.7615V140.286ZM80.5329 137.732C80.462 136.94 79.8 136.645 79.1852 136.645C78.6059 136.645 78.0266 136.976 78.0266 137.496C78.0266 137.969 78.4995 138.241 79.0315 138.371L79.8354 138.572C80.7576 138.796 81.6915 139.234 81.6915 140.25C81.6915 141.551 80.332 142.142 79.268 142.142C78.2394 142.142 76.8917 141.669 76.7853 140.156H77.8493C77.9912 140.936 78.4759 141.243 79.3034 141.243C79.9064 141.243 80.6275 141.031 80.6275 140.321C80.6275 139.801 80.1192 139.624 79.5399 139.482L78.6887 139.269C77.7784 139.044 76.9626 138.489 76.9626 137.543C76.9626 136.396 78.1449 135.746 79.2207 135.746C80.4147 135.746 81.4669 136.384 81.5851 137.732H80.5329ZM88.4174 140.132C88.0746 141.409 87.1879 142.142 85.7102 142.142C83.8068 142.142 82.5773 140.794 82.5773 138.95C82.5773 137.106 83.8068 135.746 85.7102 135.746C87.2707 135.746 88.1101 136.609 88.3702 137.72H87.3062C87.0815 137.165 86.6678 136.621 85.6747 136.621C84.4334 136.621 83.6413 137.638 83.6413 138.95C83.6413 140.25 84.4334 141.255 85.6747 141.255C86.5614 141.255 87.0697 140.853 87.3416 140.132H88.4174ZM89.7173 142V133.559H90.7813V137.035C91.1005 136.337 91.668 135.746 92.6138 135.746C94.2216 135.746 94.8245 136.798 94.8245 138.04V142H93.7605V138.146C93.7605 137.07 93.2995 136.645 92.4719 136.645C91.5734 136.645 90.7813 137.401 90.7813 138.997V142H89.7173ZM101.731 140.179C101.388 141.48 100.359 142.142 98.9997 142.142C97.1909 142.142 95.9969 140.83 95.9969 138.914C95.9969 137.07 97.25 135.746 98.9761 135.746C101.128 135.746 101.802 137.472 101.825 139.044V139.234H97.0254C97.1082 140.51 97.8884 141.255 98.9761 141.255C99.7918 141.255 100.477 140.936 100.69 140.179H101.731ZM97.0372 138.382H100.749C100.655 137.318 100.064 136.621 98.9761 136.621C97.8766 136.621 97.1791 137.33 97.0372 138.382ZM105.965 142V133.559H109.039C110.469 133.559 111.522 134.398 111.522 135.817C111.522 136.704 111.025 137.307 110.186 137.685V137.697C111.155 137.862 111.876 138.512 111.876 139.612C111.876 141.184 110.765 142 108.968 142H105.965ZM107.088 141.054H109.157C110.091 141.054 110.753 140.522 110.753 139.612C110.753 138.713 110.091 138.193 109.157 138.193H107.088V141.054ZM107.088 137.247H108.826C109.807 137.247 110.398 136.763 110.398 135.817C110.398 134.871 109.807 134.505 108.826 134.505H107.088V137.247ZM113.301 137.732C113.431 136.846 114.175 135.734 115.771 135.734C118.018 135.734 118.23 137.188 118.23 138.134V140.759C118.23 141.22 118.278 141.704 118.325 142H117.19C117.166 141.704 117.166 141.456 117.166 141.113V140.877H117.155C117.013 141.35 116.504 142.142 115.145 142.142C113.679 142.142 113.005 141.208 113.005 140.333C113.005 138.607 115.18 138.548 116.102 138.382C116.906 138.241 117.166 138.016 117.166 137.508C117.166 136.999 116.682 136.633 115.807 136.633C115.062 136.633 114.506 137.07 114.365 137.732H113.301ZM114.057 140.333C114.057 140.912 114.589 141.279 115.334 141.279C116.268 141.279 117.19 140.676 117.19 139.163L117.178 138.311C117.06 138.713 116.8 139.068 115.476 139.305C114.589 139.458 114.057 139.718 114.057 140.333ZM119.809 142V135.888H120.873V137.035C121.192 136.337 121.759 135.746 122.705 135.746C124.313 135.746 124.916 136.798 124.916 138.04V142H123.852V138.146C123.852 137.07 123.391 136.645 122.563 136.645C121.665 136.645 120.873 137.401 120.873 138.997V142H119.809ZM127.53 142H126.466V133.559H127.53V138.56L130.179 135.888H131.467L128.914 138.465L131.585 142H130.25L128.169 139.198L127.53 139.813V142Z" fill="#2E2E27"/>
<path d="M139.228 134.422L139.452 133.795L140.729 134.256V132.909H141.391V134.268L142.739 133.784L142.975 134.422L141.627 134.895L142.372 135.982L141.84 136.373L141.06 135.25L140.292 136.373L139.736 135.982L140.493 134.871L139.228 134.422ZM147.398 142H146.334V135.746H144.324V134.942C145.471 134.942 146.275 134.765 146.523 133.559H147.398V142ZM149.185 136.361C149.185 134.706 150.509 133.488 152.176 133.488C153.063 133.488 153.879 133.819 154.411 134.41C155.025 135.096 155.179 136.195 155.179 137.673C155.179 140.097 154.328 142.142 152.247 142.142C150.663 142.142 149.635 141.22 149.41 140.049H150.474C150.639 140.617 151.089 141.243 152.176 141.243C153.477 141.243 153.973 140.108 154.092 138.382C153.725 138.843 152.992 139.269 152.058 139.269C150.403 139.269 149.185 138.028 149.185 136.361ZM150.249 136.361C150.249 137.437 151.065 138.347 152.176 138.347C153.299 138.347 154.103 137.378 154.103 136.361C154.103 135.238 153.252 134.386 152.176 134.386C151.1 134.386 150.249 135.285 150.249 136.361ZM156.368 136.243C156.368 134.446 157.408 133.512 159.181 133.512C160.754 133.512 161.806 134.434 161.806 135.959C161.806 137.437 161.097 137.945 160.139 138.69C159.146 139.47 157.987 140.085 157.656 141.102H161.889V142H156.249C156.368 140.156 157.597 139.186 158.744 138.418C160.068 137.531 160.742 137.023 160.742 136.006C160.742 135.143 160.174 134.41 159.122 134.41C157.952 134.41 157.443 135.261 157.432 136.243H156.368ZM165.908 133.488C167.433 133.488 168.568 134.304 168.568 135.592C168.568 136.562 168 137.307 167.267 137.531C168.048 137.756 168.875 138.536 168.875 139.706C168.875 141.243 167.587 142.142 165.92 142.142C164.194 142.142 162.893 141.243 162.905 139.706C162.917 138.536 163.792 137.744 164.56 137.519C163.733 137.247 163.248 136.574 163.248 135.592C163.248 134.304 164.383 133.488 165.908 133.488ZM163.969 139.624C163.969 140.534 164.655 141.255 165.908 141.255C167.149 141.255 167.811 140.534 167.811 139.612C167.811 138.725 167.149 138.004 165.908 138.004C164.655 138.004 163.969 138.725 163.969 139.624ZM164.324 135.782C164.324 136.514 164.927 137.177 165.908 137.177C166.889 137.177 167.492 136.526 167.492 135.782C167.492 135.037 166.889 134.386 165.908 134.386C164.915 134.386 164.324 135.037 164.324 135.782Z" fill="#919189"/>
<path d="M188.755 130.006H233.555C237.694 130.006 241.05 133.361 241.05 137.5C241.05 141.639 237.694 144.994 233.555 144.994H188.755C184.616 144.994 181.261 141.639 181.261 137.5C181.261 133.361 184.616 130.006 188.755 130.006Z" stroke="#2E2E1F" stroke-opacity="0.23" stroke-width="0.211111"/>
<path d="M188.304 137.018L191.739 133.562L195.194 137.007L194.607 137.575L192.236 135.194L192.144 135.092V141H191.344L191.354 135.102L191.232 135.234L188.892 137.585L188.304 137.018ZM202.392 133.593C204.732 133.593 206.141 135.346 206.141 137.382C206.141 139.419 204.732 141.172 202.392 141.172C200.051 141.172 198.642 139.419 198.642 137.382C198.642 135.346 200.051 133.593 202.392 133.593ZM199.605 137.382C199.605 138.902 200.588 140.362 202.392 140.362C204.195 140.362 205.178 138.902 205.178 137.382C205.178 135.862 204.195 134.403 202.392 134.403C200.588 134.403 199.605 135.862 199.605 137.382ZM207.214 139.156V135.761H208.126V139.065C208.126 139.987 208.521 140.351 209.231 140.351C210.001 140.351 210.68 139.703 210.68 138.335V135.761H211.592V141H210.68V140.017C210.406 140.615 209.92 141.122 209.109 141.122C207.731 141.122 207.214 140.22 207.214 139.156ZM214.066 139.531C214.066 139.997 214.329 140.25 214.735 140.25H215.1V141H214.644C213.63 141 213.174 140.402 213.174 139.591V136.511H212.394V135.761H213.174V134.535L214.066 134.13V135.761H215.069V136.511H214.066V139.531ZM216.5 135.173C216.5 134.444 216.895 133.765 217.827 133.765H218.395V134.535H218.06C217.665 134.535 217.392 134.667 217.392 135.214V135.761H218.273V136.511H217.392V141H216.5V136.511H215.78V135.761H216.5V135.173ZM219.226 141V133.765H220.138V141H219.226ZM223.815 141.122C222.224 141.122 221.191 139.926 221.191 138.386C221.191 136.845 222.224 135.639 223.815 135.639C225.406 135.639 226.44 136.845 226.44 138.386C226.44 139.926 225.406 141.122 223.815 141.122ZM222.103 138.386C222.103 139.46 222.792 140.351 223.815 140.351C224.839 140.351 225.528 139.46 225.528 138.386C225.528 137.301 224.839 136.41 223.815 136.41C222.792 136.41 222.103 137.301 222.103 138.386ZM228.421 141L226.921 135.761H227.874L228.715 138.983C228.796 139.308 228.857 139.632 228.938 139.956H228.948C229.029 139.642 229.09 139.308 229.171 138.994L230.032 135.761H231.228L232.079 138.983L232.323 139.966H232.333L232.566 138.983L233.397 135.761H234.349L232.839 141H231.796L230.863 137.565L230.63 136.673H230.62C230.539 136.977 230.478 137.261 230.397 137.565L229.465 141H228.421Z" fill="#D13834"/>
<path d="M258.501 138.997C258.501 140.77 257.496 142.201 255.32 142.201C253.145 142.201 252.14 140.77 252.14 138.997V133.559H253.263V138.997C253.263 140.215 253.902 141.255 255.32 141.255C256.739 141.255 257.378 140.215 257.378 138.997V133.559H258.501V138.997ZM260.193 142V135.888H261.257V137.035C261.576 136.337 262.144 135.746 263.089 135.746C264.697 135.746 265.3 136.798 265.3 138.04V142H264.236V138.146C264.236 137.07 263.775 136.645 262.947 136.645C262.049 136.645 261.257 137.401 261.257 138.997V142H260.193ZM268.009 134.741H266.874V133.559H268.009V134.741ZM266.851 142V135.888H267.915V142H266.851ZM270.895 140.286C270.895 140.83 271.202 141.125 271.675 141.125H272.101V142H271.569C270.387 142 269.855 141.302 269.855 140.357V136.763H268.944V135.888H269.855V134.457L270.895 133.985V135.888H272.065V136.763H270.895V140.286ZM278.629 140.179C278.287 141.48 277.258 142.142 275.898 142.142C274.09 142.142 272.896 140.83 272.896 138.914C272.896 137.07 274.149 135.746 275.875 135.746C278.026 135.746 278.7 137.472 278.724 139.044V139.234H273.924C274.007 140.51 274.787 141.255 275.875 141.255C276.691 141.255 277.376 140.936 277.589 140.179H278.629ZM273.936 138.382H277.648C277.554 137.318 276.962 136.621 275.875 136.621C274.775 136.621 274.078 137.33 273.936 138.382ZM282.401 135.746C283.513 135.746 284.281 136.491 284.506 137.129H284.517V133.559H285.581V142H284.517V140.782H284.506C284.281 141.409 283.513 142.142 282.401 142.142C280.675 142.142 279.611 140.818 279.611 138.926C279.611 137.035 280.675 135.746 282.401 135.746ZM280.675 138.926C280.675 140.25 281.325 141.232 282.614 141.232C283.938 141.232 284.553 140.132 284.553 138.926C284.553 137.732 283.938 136.645 282.614 136.645C281.361 136.645 280.675 137.602 280.675 138.926Z" fill="#2E2E27"/>
<path d="M311.527 137.5C311.527 133.361 314.883 130.006 319.022 130.006H351.089C355.228 130.006 358.583 133.361 358.583 137.5C358.583 141.639 355.228 144.994 351.089 144.994H319.022C314.883 144.994 311.527 141.639 311.527 137.5Z" stroke="#2E2E1F" stroke-opacity="0.23" stroke-width="0.211111"/>
<circle cx="319.866" cy="137.5" r="3.37778" fill="#B8A9FF"/>
<path d="M326.784 134.575V133.765H332.185V134.575H329.966V141H329.003V134.575H326.784ZM333.088 135.761V136.815C333.351 136.045 333.858 135.741 334.648 135.741V136.612C334.608 136.612 334.446 136.622 334.314 136.643C333.706 136.734 333.088 137.007 333.088 138.527V141H332.176V135.761H333.088ZM335.319 137.342C335.431 136.582 336.069 135.629 337.437 135.629C339.362 135.629 339.545 136.876 339.545 137.686V139.936C339.545 140.331 339.585 140.747 339.626 141H338.653C338.633 140.747 338.633 140.534 338.633 140.24V140.037H338.623C338.501 140.443 338.065 141.122 336.9 141.122C335.644 141.122 335.066 140.321 335.066 139.571C335.066 138.092 336.93 138.041 337.721 137.899C338.41 137.778 338.633 137.585 338.633 137.149C338.633 136.714 338.217 136.399 337.468 136.399C336.829 136.399 336.353 136.774 336.231 137.342H335.319ZM335.968 139.571C335.968 140.068 336.424 140.382 337.062 140.382C337.863 140.382 338.653 139.865 338.653 138.568L338.643 137.838C338.542 138.183 338.319 138.487 337.184 138.69C336.424 138.821 335.968 139.044 335.968 139.571ZM341.165 135.761C341.661 137.2 342.148 138.639 342.644 140.078H342.654L344.114 135.761H345.107C344.448 137.504 343.799 139.257 343.141 141H342.138C341.479 139.257 340.83 137.504 340.172 135.761H341.165ZM350.383 139.439C350.089 140.554 349.208 141.122 348.042 141.122C346.492 141.122 345.469 139.997 345.469 138.355C345.469 136.774 346.543 135.639 348.022 135.639C349.866 135.639 350.444 137.119 350.464 138.467V138.629H346.35C346.421 139.723 347.09 140.362 348.022 140.362C348.721 140.362 349.309 140.088 349.492 139.439H350.383ZM346.36 137.899H349.542C349.461 136.987 348.954 136.389 348.022 136.389C347.08 136.389 346.482 136.997 346.36 137.899ZM351.549 133.765H352.461V141H351.549V133.765Z" fill="#74746A"/>
</g>
<path d="M24.6 121.1C24.6 116.129 28.6294 112.1 33.6 112.1H470.111C475.082 112.1 479.111 116.129 479.111 121.1V153.9C479.111 158.871 475.082 162.9 470.111 162.9H33.6C28.6295 162.9 24.6 158.871 24.6 153.9V121.1Z" stroke="#2E2E1F" stroke-opacity="0.12" stroke-width="1.2"/>
<g clip-path="url(#clip3_1350_15307)">
<path d="M24 181.1C24 175.798 28.2981 171.5 33.6 171.5H469.911C475.213 171.5 479.511 175.798 479.511 181.1V213.9C479.511 219.202 475.213 223.5 469.911 223.5H33.6C28.2981 223.5 24 219.202 24 213.9V181.1Z" fill="white" fill-opacity="0.9"/>
<mask id="path-32-inside-3_1350_15307" fill="white">
<path d="M24 171.5H479.511V223.5H24V171.5Z"/>
</mask>
<path d="M479.511 223.078H24V223.922H479.511V223.078Z" fill="#2E2E1F" fill-opacity="0.12" mask="url(#path-32-inside-3_1350_15307)"/>
<path d="M51.1407 193.559H52.3229L53.8007 199.872L54.0135 200.806H54.0253L54.2381 199.872L55.6686 193.559H57.2055L58.5887 199.872L58.8015 200.818H58.8133L59.0379 199.872L60.5748 193.559H61.757L60.1019 199.872L59.5463 202H58.033L56.4489 194.682H56.437L55.243 199.872L54.7583 202H53.2569L52.7249 199.872L51.1407 193.559ZM67.7755 200.179C67.4326 201.48 66.4041 202.142 65.0445 202.142C63.2357 202.142 62.0417 200.83 62.0417 198.914C62.0417 197.07 63.2949 195.746 65.0209 195.746C67.1725 195.746 67.8464 197.472 67.8701 199.044V199.234H63.0702C63.153 200.51 63.9333 201.255 65.0209 201.255C65.8366 201.255 66.5223 200.936 66.7351 200.179H67.7755ZM63.0821 198.382H66.7942C66.6997 197.318 66.1085 196.621 65.0209 196.621C63.9214 196.621 63.2239 197.33 63.0821 198.382ZM69.1356 193.559H70.1996V202H69.1356V193.559ZM71.7988 193.559H72.8628V202H71.7988V193.559ZM77.8314 197.732C77.7604 196.94 77.0984 196.645 76.4836 196.645C75.9044 196.645 75.3251 196.976 75.3251 197.496C75.3251 197.969 75.798 198.241 76.33 198.371L77.1339 198.572C78.056 198.796 78.99 199.234 78.99 200.25C78.99 201.551 77.6304 202.142 76.5664 202.142C75.5379 202.142 74.1901 201.669 74.0837 200.156H75.1477C75.2896 200.936 75.7743 201.243 76.6019 201.243C77.2048 201.243 77.926 201.031 77.926 200.321C77.926 199.801 77.4176 199.624 76.8383 199.482L75.9871 199.269C75.0768 199.044 74.2611 198.489 74.2611 197.543C74.2611 196.396 75.4433 195.746 76.5191 195.746C77.7132 195.746 78.7653 196.384 78.8836 197.732H77.8314ZM83.0822 202V193.559H88.284V194.505H84.2053V197.236H87.9411V198.181H84.2053V202H83.0822ZM89.2516 197.732C89.3816 196.846 90.1264 195.734 91.7224 195.734C93.9686 195.734 94.1814 197.188 94.1814 198.134V200.759C94.1814 201.22 94.2287 201.704 94.276 202H93.1411C93.1174 201.704 93.1174 201.456 93.1174 201.113V200.877H93.1056C92.9637 201.35 92.4554 202.142 91.0958 202.142C89.6299 202.142 88.956 201.208 88.956 200.333C88.956 198.607 91.1313 198.548 92.0534 198.382C92.8573 198.241 93.1174 198.016 93.1174 197.508C93.1174 196.999 92.6327 196.633 91.7579 196.633C91.0131 196.633 90.4574 197.07 90.3156 197.732H89.2516ZM90.0082 200.333C90.0082 200.912 90.5402 201.279 91.285 201.279C92.2189 201.279 93.1411 200.676 93.1411 199.163L93.1292 198.311C93.011 198.713 92.7509 199.068 91.4268 199.305C90.5402 199.458 90.0082 199.718 90.0082 200.333ZM96.8236 195.888V197.117C97.131 196.219 97.7221 195.864 98.6442 195.864V196.881C98.5969 196.881 98.4078 196.893 98.2541 196.916C97.5447 197.023 96.8236 197.342 96.8236 199.115V202H95.7596V195.888H96.8236ZM104.14 195.888H105.204V201.527C105.204 203.336 103.88 204.341 102.367 204.341C100.853 204.341 99.6711 203.584 99.541 202.26H100.605C100.723 203.135 101.397 203.442 102.367 203.442C103.336 203.442 104.14 202.91 104.14 201.527V200.794H104.128C103.868 201.551 103.265 202.142 102.071 202.142C100.321 202.142 99.2337 200.759 99.2337 198.926C99.2337 197.106 100.321 195.746 102.071 195.746C103.265 195.746 103.903 196.42 104.128 197.023H104.14V195.888ZM100.298 198.926C100.298 200.132 100.901 201.232 102.237 201.232C103.738 201.232 104.175 199.896 104.175 198.926C104.175 197.969 103.549 196.645 102.237 196.645C100.936 196.645 100.298 197.732 100.298 198.926ZM109.485 202.142C107.628 202.142 106.423 200.747 106.423 198.95C106.423 197.153 107.628 195.746 109.485 195.746C111.341 195.746 112.547 197.153 112.547 198.95C112.547 200.747 111.341 202.142 109.485 202.142ZM107.487 198.95C107.487 200.203 108.291 201.243 109.485 201.243C110.679 201.243 111.483 200.203 111.483 198.95C111.483 197.685 110.679 196.645 109.485 196.645C108.291 196.645 107.487 197.685 107.487 198.95Z" fill="#2E2E27"/>
<path d="M120.228 194.422L120.452 193.795L121.729 194.256V192.909H122.391V194.268L123.739 193.784L123.975 194.422L122.627 194.895L123.372 195.982L122.84 196.373L122.06 195.25L121.292 196.373L120.736 195.982L121.493 194.871L120.228 194.422ZM125.34 195.758C125.387 194.422 126.309 193.512 127.858 193.512C129.335 193.512 130.246 194.363 130.246 195.604C130.246 196.514 129.938 197.046 129.265 197.448C130.139 197.803 130.671 198.406 130.671 199.576C130.671 201.09 129.584 202.142 127.822 202.142C126.132 202.142 125.139 201.243 124.961 199.695V199.576H126.084V199.659C126.179 200.711 126.829 201.243 127.846 201.243C129.004 201.243 129.607 200.475 129.607 199.541C129.607 198.394 128.614 198.016 127.574 198.016H127.314V196.987C127.491 196.987 127.645 196.976 127.799 196.964C128.65 196.893 129.182 196.526 129.182 195.734C129.182 194.907 128.673 194.434 127.822 194.434C126.936 194.434 126.51 194.942 126.415 195.592L126.392 195.758H125.34ZM132.205 195.758C132.253 194.422 133.175 193.512 134.723 193.512C136.201 193.512 137.111 194.363 137.111 195.604C137.111 196.514 136.804 197.046 136.13 197.448C137.005 197.803 137.537 198.406 137.537 199.576C137.537 201.09 136.449 202.142 134.688 202.142C132.997 202.142 132.004 201.243 131.827 199.695V199.576H132.95V199.659C133.045 200.711 133.695 201.243 134.712 201.243C135.87 201.243 136.473 200.475 136.473 199.541C136.473 198.394 135.48 198.016 134.44 198.016H134.18V196.987C134.357 196.987 134.511 196.976 134.664 196.964C135.515 196.893 136.047 196.526 136.047 195.734C136.047 194.907 135.539 194.434 134.688 194.434C133.801 194.434 133.376 194.942 133.281 195.592L133.257 195.758H132.205ZM138.527 199.872V198.997L142.287 193.559H143.256V198.974H144.19V199.872H143.256V202H142.192V199.872H138.527ZM139.627 198.974H142.192V195.297H142.156L139.627 198.974ZM145.3 199.872V198.997L149.06 193.559H150.029V198.974H150.963V199.872H150.029V202H148.965V199.872H145.3ZM146.4 198.974H148.965V195.297H148.93L146.4 198.974Z" fill="#919189"/>
<path d="M188.755 190.006H233.555C237.694 190.006 241.05 193.361 241.05 197.5C241.05 201.639 237.694 204.994 233.555 204.994H188.755C184.616 204.994 181.261 201.639 181.261 197.5C181.261 193.361 184.616 190.006 188.755 190.006Z" stroke="#2E2E1F" stroke-opacity="0.23" stroke-width="0.211111"/>
<path d="M192.804 197.747L193.392 197.18L195.732 199.531L195.854 199.662L195.844 193.765H196.644V199.673L196.736 199.571L199.107 197.19L199.694 197.757L196.239 201.203L192.804 197.747ZM203.527 193.765H204.49V201H203.527V193.765ZM205.985 201V195.761H206.897V196.744C207.171 196.146 207.657 195.639 208.468 195.639C209.846 195.639 210.363 196.541 210.363 197.605V201H209.451V197.697C209.451 196.774 209.056 196.41 208.347 196.41C207.576 196.41 206.897 197.058 206.897 198.426V201H205.985ZM211.909 195.173C211.909 194.444 212.304 193.765 213.236 193.765H213.804V194.535H213.469C213.074 194.535 212.801 194.667 212.801 195.214V195.761H213.682V196.511H212.801V201H211.909V196.511H211.189V195.761H211.909V195.173ZM214.635 201V193.765H215.547V201H214.635ZM219.224 201.122C217.633 201.122 216.6 199.926 216.6 198.386C216.6 196.845 217.633 195.639 219.224 195.639C220.815 195.639 221.849 196.845 221.849 198.386C221.849 199.926 220.815 201.122 219.224 201.122ZM217.512 198.386C217.512 199.46 218.201 200.351 219.224 200.351C220.248 200.351 220.937 199.46 220.937 198.386C220.937 197.301 220.248 196.41 219.224 196.41C218.201 196.41 217.512 197.301 217.512 198.386ZM223.83 201L222.33 195.761H223.283L224.124 198.983C224.205 199.308 224.266 199.632 224.347 199.956H224.357C224.438 199.642 224.499 199.308 224.58 198.994L225.441 195.761H226.637L227.488 198.983L227.731 199.966H227.742L227.975 198.983L228.806 195.761H229.758L228.248 201H227.204L226.272 197.565L226.039 196.673H226.029C225.948 196.977 225.887 197.261 225.806 197.565L224.874 201H223.83Z" fill="#55AC5B"/>
<path d="M252.932 199.387C252.98 200.652 253.843 201.255 255.072 201.255C256.065 201.255 256.916 200.794 256.916 199.766C256.916 198.725 256.042 198.548 254.978 198.229C253.583 197.815 252.164 197.401 252.128 195.805C252.093 194.174 253.441 193.358 254.966 193.358C256.656 193.358 257.768 194.209 257.898 195.9H256.763C256.609 194.836 256.077 194.304 254.966 194.304C254.032 194.304 253.252 194.694 253.252 195.722C253.252 196.585 254.079 196.916 255.19 197.236C256.597 197.638 258.04 197.945 258.04 199.73C258.04 201.456 256.585 202.201 255.072 202.201C253.228 202.201 251.833 201.314 251.809 199.387H252.932ZM260.72 200.286C260.72 200.83 261.027 201.125 261.5 201.125H261.925V202H261.393C260.211 202 259.679 201.302 259.679 200.357V196.763H258.769V195.888H259.679V194.457L260.72 193.985V195.888H261.89V196.763H260.72V200.286ZM264.059 195.888V197.117C264.366 196.219 264.957 195.864 265.879 195.864V196.881C265.832 196.881 265.643 196.893 265.489 196.916C264.78 197.023 264.059 197.342 264.059 199.115V202H262.995V195.888H264.059ZM268.029 194.741H266.894V193.559H268.029V194.741ZM266.87 202V195.888H267.934V202H266.87ZM272.806 195.746C274.532 195.746 275.596 197.035 275.596 198.926C275.596 200.818 274.532 202.142 272.806 202.142C271.695 202.142 270.926 201.409 270.702 200.782H270.69V204.364H269.626V195.888H270.69V197.129H270.702C270.926 196.491 271.695 195.746 272.806 195.746ZM270.654 198.926C270.654 200.132 271.269 201.232 272.593 201.232C273.882 201.232 274.532 200.25 274.532 198.926C274.532 197.602 273.846 196.645 272.593 196.645C271.269 196.645 270.654 197.732 270.654 198.926ZM282.17 200.179C281.827 201.48 280.799 202.142 279.439 202.142C277.63 202.142 276.436 200.83 276.436 198.914C276.436 197.07 277.689 195.746 279.416 195.746C281.567 195.746 282.241 197.472 282.265 199.044V199.234H277.465C277.548 200.51 278.328 201.255 279.416 201.255C280.231 201.255 280.917 200.936 281.13 200.179H282.17ZM277.477 198.382H281.189C281.094 197.318 280.503 196.621 279.416 196.621C278.316 196.621 277.619 197.33 277.477 198.382Z" fill="#2E2E27"/>
<path d="M311.527 197.5C311.527 193.361 314.883 190.006 319.022 190.006H364.089C368.228 190.006 371.583 193.361 371.583 197.5C371.583 201.639 368.228 204.994 364.089 204.994H319.022C314.883 204.994 311.527 201.639 311.527 197.5Z" stroke="#2E2E1F" stroke-opacity="0.23" stroke-width="0.211111"/>
<circle cx="319.866" cy="197.5" r="3.37778" fill="#62C262"/>
<path d="M327.392 201V193.765H329.986C331.638 193.765 332.439 194.687 332.439 195.822C332.439 196.855 331.739 197.514 330.929 197.707C331.628 197.889 331.841 198.436 332.114 199.348C332.317 200.017 332.469 200.422 332.743 200.899V201H331.719C331.476 200.503 331.294 199.835 331.081 199.267C330.827 198.588 330.534 198.041 329.662 198.041H328.355V201H327.392ZM328.355 197.23H329.946C330.969 197.23 331.466 196.673 331.466 195.822C331.466 195.173 331.111 194.575 329.885 194.575H328.355V197.23ZM338.201 199.439C337.907 200.554 337.026 201.122 335.86 201.122C334.31 201.122 333.286 199.997 333.286 198.355C333.286 196.774 334.361 195.639 335.84 195.639C337.684 195.639 338.262 197.119 338.282 198.467V198.629H334.168C334.239 199.723 334.908 200.362 335.84 200.362C336.539 200.362 337.127 200.088 337.309 199.439H338.201ZM334.178 197.899H337.36C337.279 196.987 336.772 196.389 335.84 196.389C334.898 196.389 334.3 196.997 334.178 197.899ZM339.674 195.761C340.17 197.2 340.657 198.639 341.153 200.078H341.163L342.623 195.761H343.616C342.957 197.504 342.308 199.257 341.65 201H340.647C339.988 199.257 339.339 197.504 338.681 195.761H339.674ZM348.892 199.439C348.598 200.554 347.717 201.122 346.551 201.122C345.001 201.122 343.977 199.997 343.977 198.355C343.977 196.774 345.052 195.639 346.531 195.639C348.375 195.639 348.953 197.119 348.973 198.467V198.629H344.859C344.93 199.723 345.599 200.362 346.531 200.362C347.23 200.362 347.818 200.088 348 199.439H348.892ZM344.869 197.899H348.051C347.97 196.987 347.463 196.389 346.531 196.389C345.589 196.389 344.991 196.997 344.869 197.899ZM350.058 201V195.761H350.97V196.744C351.244 196.146 351.73 195.639 352.541 195.639C353.919 195.639 354.436 196.541 354.436 197.605V201H353.524V197.697C353.524 196.774 353.128 196.41 352.419 196.41C351.649 196.41 350.97 197.058 350.97 198.426V201H350.058ZM355.724 199.156V195.761H356.636V199.065C356.636 199.987 357.031 200.351 357.741 200.351C358.511 200.351 359.19 199.703 359.19 198.335V195.761H360.102V201H359.19V200.017C358.916 200.615 358.43 201.122 357.619 201.122C356.241 201.122 355.724 200.22 355.724 199.156ZM366.062 199.439C365.768 200.554 364.886 201.122 363.721 201.122C362.171 201.122 361.147 199.997 361.147 198.355C361.147 196.774 362.221 195.639 363.701 195.639C365.545 195.639 366.123 197.119 366.143 198.467V198.629H362.029C362.1 199.723 362.768 200.362 363.701 200.362C364.4 200.362 364.988 200.088 365.17 199.439H366.062ZM362.039 197.899H365.221C365.14 196.987 364.633 196.389 363.701 196.389C362.758 196.389 362.16 196.997 362.039 197.899Z" fill="#74746A"/>
</g>
<path d="M24.6 181.1C24.6 176.129 28.6294 172.1 33.6 172.1H469.911C474.882 172.1 478.911 176.129 478.911 181.1V213.9C478.911 218.871 474.882 222.9 469.911 222.9H33.6C28.6294 222.9 24.6 218.871 24.6 213.9V181.1Z" stroke="#2E2E1F" stroke-opacity="0.12" stroke-width="1.2"/>
</g>
<defs>
<clipPath id="clip0_1350_15307">
<path d="M0 12C0 5.37259 5.37258 0 12 0H372C378.627 0 384 5.37258 384 12V263C384 269.627 378.627 275 372 275H12C5.37258 275 0 269.627 0 263V12Z" fill="white"/>
</clipPath>
<clipPath id="clip1_1350_15307">
<path d="M24 61.1C24 55.7981 28.2981 51.5 33.6 51.5H470.111C475.413 51.5 479.711 55.7981 479.711 61.1V93.9C479.711 99.2019 475.413 103.5 470.111 103.5H33.6C28.2981 103.5 24 99.2019 24 93.9V61.1Z" fill="white"/>
</clipPath>
<clipPath id="clip2_1350_15307">
<path d="M24 121.1C24 115.798 28.2981 111.5 33.6 111.5H470.111C475.413 111.5 479.711 115.798 479.711 121.1V153.9C479.711 159.202 475.413 163.5 470.111 163.5H33.6C28.2981 163.5 24 159.202 24 153.9V121.1Z" fill="white"/>
</clipPath>
<clipPath id="clip3_1350_15307">
<path d="M24 181.1C24 175.798 28.2981 171.5 33.6 171.5H469.911C475.213 171.5 479.511 175.798 479.511 181.1V213.9C479.511 219.202 475.213 223.5 469.911 223.5H33.6C28.2981 223.5 24 219.202 24 213.9V181.1Z" fill="white"/>
</clipPath>
</defs>
</svg>
