<svg width="109" height="24" viewBox="0 0 109 24" fill="none" xmlns="http://www.w3.org/2000/svg">
<g id="&#240;&#159;&#140;&#178; Logo">
<path id="Pyramids" fill-rule="evenodd" clip-rule="evenodd" d="M6.61952 0.491362C6.41934 0.239859 6.03727 0.239859 5.8371 0.491361L0.108788 7.68847C-0.0362624 7.87071 -0.0362629 8.12897 0.108788 8.31121L6.22831 15.9998L12.2044 23.5083C12.4046 23.7598 12.7867 23.7598 12.9869 23.5083L18.7152 16.3112C18.8602 16.129 18.8602 15.8707 18.7152 15.6885L12.5957 7.99984H24.2933C24.712 7.99984 24.9453 7.51605 24.6846 7.18847L19.3542 0.491361C19.154 0.239859 18.772 0.239859 18.5718 0.491362L12.5957 7.99984L6.61952 0.491362Z" fill="#2E2E27"/>
<g id="Vesto">
<path d="M32.7949 0.71582H36.8249L42.8079 18.7268H42.9009L48.9149 0.71582H52.9449L45.0709 22.8188L40.6069 22.8498L32.7949 0.71582Z" fill="#2E2E27"/>
<path d="M66.5454 18.1068C65.6154 21.3618 62.8564 23.2838 59.0434 23.2838C54.2384 23.2838 50.9834 19.8428 50.9834 14.7898C50.9834 9.92282 54.3934 6.38882 59.0434 6.38882C64.5304 6.38882 66.7624 10.6048 66.7934 15.1618C66.7934 15.3168 66.7934 15.5648 66.7624 15.8438H54.4244C54.7034 18.6648 56.5014 20.4008 59.0434 20.4008C60.8724 20.4008 62.4224 19.6878 62.9804 18.1068H66.5454ZM54.4554 13.3018H63.2594C63.0424 11.0078 61.7094 9.17882 59.0434 9.17882C56.5014 9.17882 54.7964 10.8218 54.4554 13.3018Z" fill="#2E2E27"/>
<path d="M77.4952 11.6278C77.3092 9.82982 75.8832 9.11682 74.4262 9.11682C73.0002 9.11682 71.7912 9.92282 71.7912 11.0388C71.7912 12.1548 72.7522 12.8058 74.3952 13.2088C75.1082 13.3948 75.8212 13.5498 76.5342 13.7668C79.1382 14.4488 81.1842 15.7198 81.1842 18.2618C81.1842 21.4548 78.0222 23.2838 74.6122 23.2838C71.3882 23.2838 68.1952 21.7958 67.8542 17.9518H71.3882C71.6982 19.7188 72.7832 20.5248 74.6432 20.5248C76.1622 20.5248 77.6502 19.9358 77.6502 18.4478C77.6502 17.1458 76.4102 16.7118 75.0772 16.3708C74.3022 16.1848 73.5272 15.9988 72.7832 15.7818C70.2102 15.0998 68.3192 13.6428 68.3192 11.1628C68.3192 8.24882 71.2022 6.38882 74.4882 6.38882C77.9292 6.38882 80.5642 8.15582 80.9362 11.6278H77.4952Z" fill="#2E2E27"/>
<path d="M87.5436 17.3318C87.5436 19.0678 88.0396 19.9978 89.5896 19.9978H90.6436V22.8808L88.9076 22.9118C85.2186 22.9428 84.0096 20.7418 84.0096 17.7658V9.61282H81.4986V6.82282H84.0096V3.16482L87.5436 1.58382V6.82282H90.6746V9.61282H87.5436V17.3318Z" fill="#2E2E27"/>
<path d="M99.8523 23.2838C95.1093 23.2838 91.5753 19.8738 91.5753 14.8518C91.5753 9.82982 95.1093 6.38882 99.8523 6.38882C104.564 6.38882 108.098 9.82982 108.098 14.8518C108.098 19.8738 104.564 23.2838 99.8523 23.2838ZM95.0783 14.8518C95.0783 17.8898 96.9693 20.3698 99.8523 20.3698C102.704 20.3698 104.595 17.8898 104.595 14.8518C104.595 11.7828 102.704 9.30282 99.8523 9.30282C96.9693 9.30282 95.0783 11.7828 95.0783 14.8518Z" fill="#2E2E27"/>
</g>
</g>
</svg>
